<?xml version="1.0" encoding="UTF-8" standalone="no"?>
<!-- Generator: Adobe Illustrator 12.0.0, SVG Export Plug-In . SVG Version: 6.00 Build 51448)  -->

<svg
   xmlns:sketch="http://www.bohemiancoding.com/sketch/ns"
   xmlns:dc="http://purl.org/dc/elements/1.1/"
   xmlns:cc="http://creativecommons.org/ns#"
   xmlns:rdf="http://www.w3.org/1999/02/22-rdf-syntax-ns#"
   xmlns:svg="http://www.w3.org/2000/svg"
   xmlns="http://www.w3.org/2000/svg"
   xmlns:sodipodi="http://sodipodi.sourceforge.net/DTD/sodipodi-0.dtd"
   xmlns:inkscape="http://www.inkscape.org/namespaces/inkscape"
   version="1.0"
   id="Calque_1"
   width="212"
   height="205"
   viewBox="0 0 212 205.00001"
   overflow="visible"
   enable-background="new 0 0 210.5 204.094"
   xml:space="preserve"
   inkscape:version="0.91 r13725"
   sodipodi:docname="logo_gitlab.svg"
   style="overflow:visible"
   inkscape:export-filename="E:\Data\boulot\misc\logiciels\airGR\website\airGR_github\logo\bitmap.png"
   inkscape:export-xdpi="599.85748"
   inkscape:export-ydpi="599.85748"><metadata
     id="metadata33"><rdf:RDF><cc:Work
         rdf:about=""><dc:format>image/svg+xml</dc:format><dc:type
           rdf:resource="http://purl.org/dc/dcmitype/StillImage" /><dc:title></dc:title></cc:Work></rdf:RDF></metadata><defs
     id="defs31" /><sodipodi:namedview
     pagecolor="#d1d1d1"
     bordercolor="#666666"
     borderopacity="1"
     objecttolerance="10"
     gridtolerance="10"
     guidetolerance="10"
     inkscape:pageopacity="0"
     inkscape:pageshadow="2"
     inkscape:window-width="1680"
     inkscape:window-height="988"
     id="namedview29"
     showgrid="false"
     inkscape:zoom="1.15633"
     inkscape:cx="-115.10764"
     inkscape:cy="136.63921"
     inkscape:window-x="1912"
     inkscape:window-y="-8"
     inkscape:window-maximized="1"
     inkscape:current-layer="Calque_1" /><g
     id="g3"
     transform="translate(1.0001878,0.90600172)"><path
       d="m 210.338,163.131 c 1.007,5.722 -2.821,11.193 -8.558,12.198 L 39.591,203.932 c -5.73,1.013 -11.195,-2.817 -12.207,-8.539 L 0.163,40.976 C -0.853,35.242 2.981,29.77 8.711,28.757 L 170.903,0.163 c 5.72,-1.015 11.193,2.817 12.196,8.549 l 27.239,154.419 z"
       id="path5"
       inkscape:connector-curvature="0"
       style="fill:#ffffff" /><g
       id="g13"><rect
         x="42.813"
         y="127.72"
         width="5.3439999"
         height="29.860001"
         id="rect15"
         style="fill:#ffffff" /></g><path
       d="m 67.911,127.776 0,5.405 -3.017,0 c -1.626,0 -4.378,1.191 -4.378,5.632 l 0,18.768 -5.405,0 0,-29.805 5.405,0 0,2.52 0.507,-0.641 c 0.972,-1.234 2.562,-1.879 4.607,-1.879 l 2.281,0 z"
       id="path17"
       inkscape:connector-curvature="0"
       style="fill:#ffffff" /><path
       d="m 81.656,127.374 c 6.261,0 10.486,3.66 11.037,9.557 l 0,0.002 -5.519,0 0,-0.002 c -0.479,-2.824 -2.362,-4.256 -5.631,-4.256 -4.233,0 -5.121,1.937 -5.121,3.57 0,1.162 1.003,2.126 2.669,2.564 0.844,0.237 1.796,0.48 2.791,0.717 1.644,0.416 3.356,0.837 4.836,1.33 4.046,1.331 6.367,4.103 6.367,7.617 0,6.083 -4.102,9.554 -11.258,9.554 -6.471,0 -10.877,-4.016 -11.204,-10.224 l 5.401,0 c 0.423,3.981 3.388,4.819 5.803,4.819 3.919,0 5.913,-1.384 5.913,-4.149 0,-1.331 -1.054,-2.404 -2.892,-2.954 -1.614,-0.518 -3.2,-0.913 -4.794,-1.285 -0.789,-0.196 -1.583,-0.376 -2.378,-0.586 -4.135,-1.078 -6.596,-3.836 -6.596,-7.403 0,-5.557 3.957,-8.871 10.576,-8.871"
       id="path19"
       inkscape:connector-curvature="0"
       style="fill:#ffffff" /><path
       d="m 127.611,127.313 c 6.881,0 11.315,4.27 11.315,10.873 l 0,6.42 -17.228,0 0,2.566 c 0,2.072 0.769,5.569 5.912,5.569 3.072,0 5.117,-1.809 5.631,-4.938 l 5.563,0 c -0.783,6.372 -5.074,10.346 -11.194,10.346 -6.88,0 -11.319,-4.306 -11.319,-10.977 l 0,-8.986 c 0.001,-6.492 4.554,-10.873 11.32,-10.873 m -5.912,11.944 11.766,0 0,-1.071 c 0,-1.679 -0.564,-5.571 -5.854,-5.571 -3.749,0 -5.912,2.034 -5.912,5.571 l 0,1.071 z"
       id="path21"
       inkscape:connector-curvature="0"
       style="fill:#ffffff" /><path
       d="m 154.697,127.172 c -5.015,0 -10.348,3.015 -10.935,9.746 l -0.012,0.154 5.669,0 0.028,-0.125 c 0.517,-3.659 3.549,-4.191 5.312,-4.191 3.41,0 4.918,1.412 4.918,4.574 l 0,1.907 -6.782,0 c -6.219,0 -10.223,3.5 -10.223,8.891 0,6.94 5.325,10.101 10.262,10.101 2.574,0 5.062,-0.863 6.508,-2.269 l 0.224,-0.203 0,1.829 5.76,0 0,-20.431 c -10e-4,-9.251 -8.21,-9.983 -10.729,-9.983 m 5.121,17.671 0,2.387 c 0,3.541 -3.221,5.739 -6.194,5.739 -1.638,0 -5.466,-0.462 -5.466,-4.841 0,-2.272 1.743,-3.567 4.776,-3.567 l 6.884,0 0,0.282 z"
       id="path23"
       inkscape:connector-curvature="0"
       style="fill:#ffffff" /><path
       d="m 49.073,120.276 c 0,2.139 -1.724,3.854 -3.843,3.854 -2.131,0 -3.855,-1.715 -3.855,-3.854 0,-2.121 1.724,-3.835 3.855,-3.835 2.119,0 3.843,1.714 3.843,3.835"
       id="path25"
       inkscape:connector-curvature="0"
       style="fill:#ffffff" /><path
       d="m 105.542,117.025 0,10.753 6.193,0 0,5.403 -6.193,0 0,16.606 c 0,1.604 0.81,2.449 2.327,2.449 l 3.988,0 0,5.344 -4.21,0 c -4.762,0 -7.501,-2.929 -7.501,-8.014 l 0,-16.386 -5.408,0 0,-5.403 5.408,0 0,-10.753 5.396,0 z"
       id="path27"
       inkscape:connector-curvature="0"
       style="fill:#ffffff" /></g><g
     transform="matrix(0.78513374,0,0,0.78513374,25.8945,29.954858)"
     style="fill:none;fill-rule:evenodd;stroke:none;stroke-width:1"
     id="Page-1"
     sketch:type="MSPage"><g
       id="Fill-1-+-Group-24"
       sketch:type="MSLayerGroup"><g
         id="Group-24"
         sketch:type="MSShapeGroup"><g
           id="Group"><path
             style="fill:#e24329"
             inkscape:connector-curvature="0"
             d="m 105.0614,193.655 0,0 38.64,-118.921 -77.28,0 38.64,118.921 0,0 z"
             id="Fill-4" /><path
             style="fill:#fc6d26"
             inkscape:connector-curvature="0"
             d=""
             id="Fill-6" /><path
             style="fill:#fc6d26"
             inkscape:connector-curvature="0"
             d="m 105.0614,193.6548 -38.64,-118.921 -54.153,0 92.793,118.921 z"
             id="Fill-8" /><path
             style="fill:#fc6d26"
             inkscape:connector-curvature="0"
             d=""
             id="Fill-10" /><path
             style="fill:#fca326"
             inkscape:connector-curvature="0"
             d="m 12.2685,74.7341 0,0 -11.742,36.139 c -1.071,3.296 0.102,6.907 2.906,8.944 l 101.629,73.838 -92.793,-118.921 z"
             id="Fill-12" /><path
             style="fill:#fc6d26"
             inkscape:connector-curvature="0"
             d=""
             id="Fill-14" /><path
             style="fill:#e24329"
             inkscape:connector-curvature="0"
             d="m 12.2685,74.7342 54.153,0 -23.273,-71.625 c -1.197,-3.686 -6.411,-3.685 -7.608,0 l -23.272,71.625 z"
             id="Fill-16" /><path
             style="fill:#fc6d26"
             inkscape:connector-curvature="0"
             d="m 105.0614,193.6548 38.64,-118.921 54.153,0 -92.793,118.921 z"
             id="Fill-18" /><path
             style="fill:#fca326"
             inkscape:connector-curvature="0"
             d="m 197.8544,74.7341 0,0 11.742,36.139 c 1.071,3.296 -0.102,6.907 -2.906,8.944 l -101.629,73.838 92.793,-118.921 z"
             id="Fill-20" /><path
             style="fill:#e24329"
             inkscape:connector-curvature="0"
             d="m 197.8544,74.7342 -54.153,0 23.273,-71.625 c 1.197,-3.686 6.411,-3.685 7.608,0 l 23.272,71.625 z"
             id="Fill-22" /></g></g></g></g></svg>