<?xml version="1.0" encoding="UTF-8" standalone="no"?>
<!-- Generator: Adobe Illustrator 12.0.0, SVG Export Plug-In . SVG Version: 6.00 Build 51448)  -->

<svg
   xmlns:dc="http://purl.org/dc/elements/1.1/"
   xmlns:cc="http://creativecommons.org/ns#"
   xmlns:rdf="http://www.w3.org/1999/02/22-rdf-syntax-ns#"
   xmlns:svg="http://www.w3.org/2000/svg"
   xmlns="http://www.w3.org/2000/svg"
   xmlns:sodipodi="http://sodipodi.sourceforge.net/DTD/sodipodi-0.dtd"
   xmlns:inkscape="http://www.inkscape.org/namespaces/inkscape"
   version="1.0"
   id="Calque_1"
   width="210.5"
   height="204.09399"
   viewBox="0 0 210.5 204.094"
   overflow="visible"
   enable-background="new 0 0 210.5 204.094"
   xml:space="preserve"
   inkscape:version="0.91 r13725"
   sodipodi:docname="logo_inrae.svg"
   style="overflow:visible"
   inkscape:export-filename="E:\Data\boulot\misc\logiciels\airGR\website\airGR_github\logo\bitmap.png"
   inkscape:export-xdpi="599.85748"
   inkscape:export-ydpi="599.85748"><metadata
     id="metadata33"><rdf:RDF><cc:Work
         rdf:about=""><dc:format>image/svg+xml</dc:format><dc:type
           rdf:resource="http://purl.org/dc/dcmitype/StillImage" /><dc:title /></cc:Work></rdf:RDF></metadata><defs
     id="defs31" /><sodipodi:namedview
     pagecolor="#d1d1d1"
     bordercolor="#666666"
     borderopacity="1"
     objecttolerance="10"
     gridtolerance="10"
     guidetolerance="10"
     inkscape:pageopacity="0"
     inkscape:pageshadow="2"
     inkscape:window-width="1920"
     inkscape:window-height="1132"
     id="namedview29"
     showgrid="false"
     inkscape:zoom="1.15633"
     inkscape:cx="-262.72455"
     inkscape:cy="102.047"
     inkscape:window-x="-8"
     inkscape:window-y="-8"
     inkscape:window-maximized="1"
     inkscape:current-layer="g3" /><g
     id="g3"
     transform="translate(0,-4.140625e-6)"><path
       d="m 210.338,163.131 c 1.007,5.722 -2.821,11.193 -8.558,12.198 L 39.591,203.932 c -5.73,1.013 -11.195,-2.817 -12.207,-8.539 L 0.163,40.976 C -0.853,35.242 2.981,29.77 8.711,28.757 L 170.903,0.163 c 5.72,-1.015 11.193,2.817 12.196,8.549 l 27.239,154.419 z"
       id="path5"
       inkscape:connector-curvature="0"
       style="fill:#ffffff" /><g
       id="g13"><rect
         x="42.813"
         y="127.72"
         width="5.3439999"
         height="29.860001"
         id="rect15"
         style="fill:#ffffff" /></g><path
       d="m 67.911,127.776 0,5.405 -3.017,0 c -1.626,0 -4.378,1.191 -4.378,5.632 l 0,18.768 -5.405,0 0,-29.805 5.405,0 0,2.52 0.507,-0.641 c 0.972,-1.234 2.562,-1.879 4.607,-1.879 l 2.281,0 z"
       id="path17"
       inkscape:connector-curvature="0"
       style="fill:#ffffff" /><path
       d="m 81.656,127.374 c 6.261,0 10.486,3.66 11.037,9.557 l 0,0.002 -5.519,0 0,-0.002 c -0.479,-2.824 -2.362,-4.256 -5.631,-4.256 -4.233,0 -5.121,1.937 -5.121,3.57 0,1.162 1.003,2.126 2.669,2.564 0.844,0.237 1.796,0.48 2.791,0.717 1.644,0.416 3.356,0.837 4.836,1.33 4.046,1.331 6.367,4.103 6.367,7.617 0,6.083 -4.102,9.554 -11.258,9.554 -6.471,0 -10.877,-4.016 -11.204,-10.224 l 5.401,0 c 0.423,3.981 3.388,4.819 5.803,4.819 3.919,0 5.913,-1.384 5.913,-4.149 0,-1.331 -1.054,-2.404 -2.892,-2.954 -1.614,-0.518 -3.2,-0.913 -4.794,-1.285 -0.789,-0.196 -1.583,-0.376 -2.378,-0.586 -4.135,-1.078 -6.596,-3.836 -6.596,-7.403 0,-5.557 3.957,-8.871 10.576,-8.871"
       id="path19"
       inkscape:connector-curvature="0"
       style="fill:#ffffff" /><path
       d="m 127.611,127.313 c 6.881,0 11.315,4.27 11.315,10.873 l 0,6.42 -17.228,0 0,2.566 c 0,2.072 0.769,5.569 5.912,5.569 3.072,0 5.117,-1.809 5.631,-4.938 l 5.563,0 c -0.783,6.372 -5.074,10.346 -11.194,10.346 -6.88,0 -11.319,-4.306 -11.319,-10.977 l 0,-8.986 c 0.001,-6.492 4.554,-10.873 11.32,-10.873 m -5.912,11.944 11.766,0 0,-1.071 c 0,-1.679 -0.564,-5.571 -5.854,-5.571 -3.749,0 -5.912,2.034 -5.912,5.571 l 0,1.071 z"
       id="path21"
       inkscape:connector-curvature="0"
       style="fill:#ffffff" /><path
       d="m 154.697,127.172 c -5.015,0 -10.348,3.015 -10.935,9.746 l -0.012,0.154 5.669,0 0.028,-0.125 c 0.517,-3.659 3.549,-4.191 5.312,-4.191 3.41,0 4.918,1.412 4.918,4.574 l 0,1.907 -6.782,0 c -6.219,0 -10.223,3.5 -10.223,8.891 0,6.94 5.325,10.101 10.262,10.101 2.574,0 5.062,-0.863 6.508,-2.269 l 0.224,-0.203 0,1.829 5.76,0 0,-20.431 c -10e-4,-9.251 -8.21,-9.983 -10.729,-9.983 m 5.121,17.671 0,2.387 c 0,3.541 -3.221,5.739 -6.194,5.739 -1.638,0 -5.466,-0.462 -5.466,-4.841 0,-2.272 1.743,-3.567 4.776,-3.567 l 6.884,0 0,0.282 z"
       id="path23"
       inkscape:connector-curvature="0"
       style="fill:#ffffff" /><path
       d="m 49.073,120.276 c 0,2.139 -1.724,3.854 -3.843,3.854 -2.131,0 -3.855,-1.715 -3.855,-3.854 0,-2.121 1.724,-3.835 3.855,-3.835 2.119,0 3.843,1.714 3.843,3.835"
       id="path25"
       inkscape:connector-curvature="0"
       style="fill:#ffffff" /><path
       d="m 105.542,117.025 0,10.753 6.193,0 0,5.403 -6.193,0 0,16.606 c 0,1.604 0.81,2.449 2.327,2.449 l 3.988,0 0,5.344 -4.21,0 c -4.762,0 -7.501,-2.929 -7.501,-8.014 l 0,-16.386 -5.408,0 0,-5.403 5.408,0 0,-10.753 5.396,0 z"
       id="path27"
       inkscape:connector-curvature="0"
       style="fill:#ffffff" /><g
       id="g12"
       transform="matrix(0.05602335,0,0,-0.05602335,27.926195,125.14357)"><path
         d="m 135.676,759.152 -126.53147,0 c -5.04687,0 -9.14062375,-4.101 -9.14062375,-9.16 l 0,-732.0623 c 0,-5.0625 4.09375375,-9.16017 9.14062375,-9.16017 l 126.53147,0 c 5.043,0 9.14,4.09767 9.14,9.16017 l 0,732.0623 c 0,5.059 -4.097,9.16 -9.14,9.16"
         style="fill:#19b2ad;fill-opacity:1;fill-rule:nonzero;stroke:none"
         id="path14"
         inkscape:connector-curvature="0" /><path
         d="m 848.699,759.152 -126.035,0 c -5.059,0 -9.144,-4.101 -9.144,-9.16 l 0,-489.601 -310.008,494.472 c -1.668,2.676 -4.598,4.289 -7.735,4.289 l -127.039,0 c -5.043,0 -9.144,-4.101 -9.144,-9.16 l 0,-732.0623 c 0,-5.0625 4.101,-9.16017 9.144,-9.16017 l 127.039,0 c 5.047,0 9.149,4.09767 9.149,9.16017 l 0,487.6173 308.996,-492.5001 c 1.668,-2.6563 4.586,-4.27737 7.73,-4.27737 l 127.047,0 c 5.039,0 9.141,4.09767 9.141,9.16017 l 0,732.0623 c 0,5.059 -4.102,9.16 -9.141,9.16"
         style="fill:#19b2ad;fill-opacity:1;fill-rule:nonzero;stroke:none"
         id="path16"
         inkscape:connector-curvature="0" /><path
         d="m 1332.47,441.309 c -22.26,-19.969 -53.99,-30.09 -94.33,-30.09 l -121.41,0 0,227.058 124.8,0 c 41.57,-0.64 73.03,-10.957 93.47,-30.625 20.29,-19.574 30.57,-47.972 30.57,-84.422 0,-35.132 -10.82,-61.929 -33.1,-81.921 m 47.98,-116.379 c 39.22,18.144 70.6,43.445 93.35,75.289 24.61,34.476 37.09,77.644 37.09,128.347 0,74.329 -24.26,132.079 -72.1,171.618 -47.35,39.125 -115.01,58.968 -201.15,58.968 l -257.081,0 c -5.059,0 -9.145,-4.101 -9.145,-9.156 l 0,-732.0663 c 0,-5.0508 4.086,-9.15236 9.145,-9.15236 l 127.031,0 c 5.04,0 9.14,4.10156 9.14,9.15236 l 0,272.4103 126.92,0 144.07,-276.6408 c 1.57,-3.0273 4.69,-4.92186 8.09,-4.92186 l 136.09,0 c 5.05,0 9.14,4.10156 9.14,9.15236 l 0,6.5195 c 0,1.5274 -0.38,3.0078 -1.11,4.3477 L 1380.45,324.93"
         style="fill:#19b2ad;fill-opacity:1;fill-rule:nonzero;stroke:none"
         id="path18"
         inkscape:connector-curvature="0" /><path
         d="m 2943.13,383.246 c 0,51.442 -10.96,102.074 -30.97,149.16 -3.67,5.407 -7.31,2.246 -8.6,0.75 l -76.23,-119.664 c -6.82,-11.898 -11.8,-20.191 -13.13,-50.015 -0.08,-2.075 -0.18,-3.75 -0.49,-5.247 -12.6,-128.964 -121.61,-230.085 -253.82,-230.085 -24.76,0 -49.35,3.601 -73.09,10.718 -40.38,12.102 -77.53,34.336 -107.43,64.309 -1.07,1.074 -2.11,2.148 -3.15,3.242 162.58,71.758 298.68,196.742 384.21,353.137 18.7,34.207 35.05,70.062 48.59,106.609 1.33,3.613 0.26,7.692 -2.7,10.176 -28.46,23.973 -60.06,43.617 -93.92,58.379 -48.33,21.086 -99.63,31.773 -152.51,31.773 -0.08,0 -0.15,-0.015 -0.22,-0.015 -0.07,0 -0.14,0.015 -0.21,0.015 -131.11,0 -246.96,-66.422 -315.95,-167.355 -42.13,-61.524 -66.87,-135.848 -66.87,-215.887 0,-36.266 5.12,-72.152 15.25,-106.82 -17.41,-3.664 -35.05,-6.645 -52.63,-8.918 L 1955.7,753.246 c -1.33,3.551 -4.75,5.899 -8.54,5.899 l -113.99,0 c -3.8,0 -7.21,-2.348 -8.55,-5.915 L 1548.45,21.1602 c -1.06,-2.8047 -0.68,-5.9571 1.03,-8.4375 1.71,-2.4805 4.51,-3.95317 7.5,-3.95317 l 132.08,0 c 3.87,0 7.34,2.46877 8.64,6.15237 l 44.32,127.3051 296.17,0 1.37,-3.989 43.07,-123.3278 c 1.29,-3.6719 4.75,-6.14067 8.63,-6.14067 l 132.56,0 c 3,0 5.82,1.47267 7.52,3.95317 1.7,2.4804 2.09,5.6328 1.04,8.4375 l -48.33,127.8708 c 20.6,3.426 41.16,7.715 61.35,12.715 0.58,0.149 1.16,0.254 1.75,0.391 0.55,-0.789 1.11,-1.602 1.68,-2.383 25.12,-34.91 55.67,-65.1759 90.82,-89.961 64.74,-45.6524 140.74,-69.79690625 219.81,-69.79690625 l 0,0.02343755 c 0.14,0 0.28,-0.02343755 0.43,-0.02343755 211.31,0 383.24,171.92590625 383.24,383.24990625 m -383.54,255.082 c 31.95,-0.015 63.09,-5.933 92.73,-17.64 -74.59,-137.668 -194.06,-245.86 -338.07,-306.176 -6.28,22.371 -9.46,45.445 -9.46,68.734 0,140.567 114.28,254.922 254.8,255.082 m -563.95,-374.25 0.97,-2.781 -213.11,0 16.84,48.391 89.58,257.175 105.72,-302.785"
         style="fill:#19b2ad;fill-opacity:1;fill-rule:nonzero;stroke:none"
         id="path20"
         inkscape:connector-curvature="0" /></g></g></svg>