<?xml version="1.0" encoding="UTF-8" standalone="no"?>
<!-- Generator: Adobe Illustrator 19.1.0, SVG Export Plug-In . SVG Version: 6.00 Build 0)  -->

<svg
   xmlns:i="http://ns.adobe.com/AdobeIllustrator/10.0/"
   xmlns:dc="http://purl.org/dc/elements/1.1/"
   xmlns:cc="http://creativecommons.org/ns#"
   xmlns:rdf="http://www.w3.org/1999/02/22-rdf-syntax-ns#"
   xmlns:svg="http://www.w3.org/2000/svg"
   xmlns="http://www.w3.org/2000/svg"
   xmlns:sodipodi="http://sodipodi.sourceforge.net/DTD/sodipodi-0.dtd"
   xmlns:inkscape="http://www.inkscape.org/namespaces/inkscape"
   version="1.1"
   id="Calque_1"
   x="0px"
   y="0px"
   viewBox="0 0 238.99999 210"
   xml:space="preserve"
   inkscape:version="0.91 r13725"
   sodipodi:docname="logo_republique_francaise_CMJN2.svg"
   width="239"
   height="210"
   inkscape:export-filename="E:\Data\boulot\collegues_aide\00_equipe_hydro\2020-01_20_logo_inrae\logo_republique_francaise_inrae_saclay_CMJN_0500x0185.png"
   inkscape:export-xdpi="79.285713"
   inkscape:export-ydpi="79.285713"><metadata
     id="metadata63"><rdf:RDF><cc:Work
         rdf:about=""><dc:format>image/svg+xml</dc:format><dc:type
           rdf:resource="http://purl.org/dc/dcmitype/StillImage" /><dc:title></dc:title></cc:Work></rdf:RDF></metadata><defs
     id="defs61"><clipPath
       clipPathUnits="userSpaceOnUse"
       id="clipPath18"><path
         d="m 0,0 7097.84,0 0,6428 L 0,6428 0,0 Z"
         id="path20-3"
         inkscape:connector-curvature="0" /></clipPath></defs><sodipodi:namedview
     pagecolor="#ffffff"
     bordercolor="#666666"
     borderopacity="1"
     objecttolerance="10"
     gridtolerance="10"
     guidetolerance="10"
     inkscape:pageopacity="0"
     inkscape:pageshadow="2"
     inkscape:window-width="1680"
     inkscape:window-height="988"
     id="namedview59"
     showgrid="false"
     inkscape:zoom="2.1109298"
     inkscape:cx="35.816766"
     inkscape:cy="87.932872"
     inkscape:window-x="1912"
     inkscape:window-y="-8"
     inkscape:window-maximized="1"
     inkscape:current-layer="Calque_1" /><style
     type="text/css"
     id="style3">
	.st0{fill:#62003C;}
</style><i:pgf
     id="adobe_illustrator_pgf"><![CDATA[
	eJzsvfleMknSMHpugHsAFUWRolaqyl1B3HB53HdFQOURAVm6p+eP73rOXMfc2InI2rKqshaWfpfz
TfevbaCiMiMjY8+MzHTq7CK3Xe+8NXISxycT6XSx16gOOr2VJPk1edBqDfuDHv6UOV9MCirHA9D2
gfZiAl43ev1mp72SFHROIA/L+HZmZ/jPf1a/qqVtcTGZWYSfL5uDVgMeVDofndzV2UW11qr+xfX/
+Fi0eoVmStUBwAhqnpfyIi8UkoKyoggIUG3/Ue33m//ExwVJk+C3nc6wXW+2P3Y6/1hJ6kJSLEhJ
SRHwP3i63zxv9D0gXEFQeV6WdFmRBAlf4ISCLgmCIkqypMGbPCfyuqqqmiTykkB+KMiarGsKtKoU
oN1Spzb8brQHZ71OrdHvFzutTq+/kiz+VW0nj6sf8KSavGu0Wp0/kzutau0rAdRSXsrNVgMI810d
JAUJybR9IIgvO8Nmq34y/H5rAMlEHX+VXkiLV31oClrFz/iz+nLwDb9cNAYDGA70h5QuHt8d0WgA
acx/Mw/nje6//9WDV54WzWZ7ne53tffVnxIhsM3Lxne3BVNGyCuLPKfAKArwl/psQsL4CVRO0ESO
1woFXtO0giroSVHlZF7TeYUXdXhDTxZ4ntMFSdIFQZBETUgqWoEGUY0mnYlo/NFs/LmSPOm0Gwa1
t3uDC4NVZJnnjb/Gk/Nhq9G7ajcHQAYyCN2g93Gn3mjBHNjvl1tVQmbyr+D8NQAuq72PxgAYrNMa
Dgj7a1YPMJ2V6l8N5AmBTLP6stP4aLahn/YA0H1pvr/8YQjNy8dgRVANMP3ltNtoX3auyVAUheMl
UeLlgi5rBUVMwlRxmq4LvAJjKWhJmVNVCSZOFEFGREGDKSQ4yvAVfrfQFpy/Ji7brUGj14Y5s/D5
r+x8t11/MRVGo04joBAEsHuLdjDJ6TNg39NeE4i3wgPjGHKw12vWHTFQxaRm/CGzw8E04D+CoAP7
inrcX3Tyj1oQFE2QxTi/GGQDLhnAGKypFl+Kx5SI8tzxKQwDRl3sfCOr9lFrITOA1LY6H8Yz+zN5
Aq8PuwZJDLYBrj7rNdvYZuKEPNFezlpDeLTX6wy7B+33TiJjKOszRKbXPm3Dh8/kTm/Y/0xedjot
0MDA38D5ycY/EKBhKndUSI1kvZH87gya7wAFfG+8TN7FV7lqs7v4P69T+53QDo2uqr1Bsz9o/gxN
DP73dFmstlrNj161+9msxei15oDTPdOtjNA5sHYPZpc8hFbIV+v/0W9f1AhbxOeH5vv7sI8dmG+O
gOl/ZV/XjRo4PWBb6snTt9/wBVoxf+sTDwY5u7XQRGPtPPpnDIqdgdrrAnjzD4vqSQKDvBMFQD2K
LbDJ3XoTcAvoKxTm4s/qoPZZab71o3urNNs+dG2nEumFAPhbvVF1nKQYk/7VABxCWzZAxmjbkPJW
o13v+zmp9CgKBRCnOv4fZ/sdmapvi1sFJsF4N8Yg/vp+67Sa/W8kqvXZkdwz1CO1VuPir/6g8R3d
XKmBuDgyy5SB3fYfjVan28UOjBdiEKRVbVd7NpU97Z41wDwNQVnU/2pXv4nuqS/YY4BXG4PbsD6Q
3O/Ndh1E+GLYHBAtYyi0zne300c60zSxgC/sNhXiWFCGMpeLsqCGFSaYGHJsDdVQIscw3g/A57QH
HS2GP0uGKus8/B0Co/of5xeTnIEMOgE0KlMeUpAZSWSCUINH6E6JclJA95k3PDrR8OymirZuPEGH
ffBXq9FP5I/anT/b5EtyJZF5ABlI1v/9r/fqcPC0mMyfVIEvlhP5iyZEHg0LjE+eJnjT7/yCT+cJ
ywc9SljeO5+8/Qu+HMKH3/DTnzCs5HHy4YlP1uHn2/MEuqq39UT+rAoYJlcTyTyIB/yfYAnDcnCM
HOhZtQVeYINgcfaWYEZliFA/4Q7UzmqJsx27eauVUQhYAb/DSzXfCAjQOLMl8MYjQ1dhM/+P+TM0
5PkxoHETXyt4g4C/mki/5K3vMJn4rVlDDV7t/WV8vz2unECAxny4msz847vVhsc5MFq95ttw0AC1
vYyg271e9b+miSm0T0HVPputeq/RNmDEZP4AKGM/xT+Dv1CB49PMfLv/8ke1118F8biA1tsfbtA/
qq2hBYu/9wPgQHebYCYmfde3/6XUaXfQvYgkTKtT+2rU41DGglz+7x3XW5MktoQYYwPmgKjyhAwi
enw09JSmf0JKCKGUiDX+ZvWt1YjD+JGz+t8s6DVwbzvff5eo/2/SYit/xB4cgsZn5b+PD1f6VfRa
0OaBiMVlx79dLgCX/0Go/LeT5bsxqNZhiibFQ58Qj9m66RPF4XMKGH/hzb4x6b/da1S3SW7Ar7U9
Iq5qBZFeGkhqgqRymPDnBRnT/8n8eaPaOus0MW37ksyQdLqRonV3XGr2u63qX8fV3pc5HAwEMVyG
6PyParOVFGFYV+1mDUZijc4xOoLREYR72+fGL74VCd+ahYPaeaN12Tk30CJonnX6TRwneSqa0+Nd
BPEuccRuULBx3oGwKpk56IOj/dap9uoQQFSHLZcxNefLgiBzYVLo4fzf/7IWFJLfnb8a7TbGCV4q
gb8tJG1/meSLk2YeGqLSs16j3xgkKVIqvEVM8L6Txw0I/86rfQjdm/808iTOMoZJat71xulw0B0O
It6xtDsLuUq1/TGEACd51uli/mCZwXlSweqyW63XPQTtdzsOXxs/VVvNvuen72rf5DXFRKbWafWM
X1QLv3q3ydlCs32Q3B4OOvbQGt6x6Mit7X63CkJd+yv50WvWk30bThFlUaNgq+acJmu4ogTh8pst
zDaShD6WrCabQMTqoAGADeLNhQJ/tcHz7MBMfBhpGA+onuxWu8AA/eb3sFV1ZkYIxDDmKD56DUul
RcL2LM+4oIAQBUMKI0BS/UfCOhQni8Q2qMWRxjLyhT2FgovURHZ6fzSSl41/DEjus/rWbDUHloDy
nLFylLQ+UJr54nrvBdevdjr/uL0zqaXpmkV9KkOLC1gvlcb7YMdGVhLVghoAWW51Or1zi1qiI81e
wH1MNHfa+43mx+fAkv0g4GKj1Sp2hpa9CG6VdH/ardZsMtDsySffbc0DrNnCZG9/0Ot8WX5VxtgW
QBHqa/ugPGy1rBkxlwPhqb/1AtV6tT1oJkHqq31LSYUNzZnhKGwHMNVRNMDJcpFADqTrORK/XK01
ttsfrRizS+D3KAkLRIJAurCI5BqHwRTNYlleFJRA7HGgu/8Y+NwIJi5O67RYMkFt9o2JB3mJRkTW
AumCQgeMBQ7HoNqumRhpAph3sOs8r0qgs8SkJss8JxUEXdcVQUBz4HZkvK1eDKq2fTclryAKcog0
U5MYzB4I6OEOWdHUoHbJLFINR0jp+3u/YWEb0OKl7YBiQjKKCLVqqxHOCbiVwmGCEPLYLBDUEgKR
xYLrZr9pqF2chIj+ycDDXsspljcTPE5w76r4hTR2XW03+5/AUdTch8pBcO+4v8XiQllRVXCn9ZG4
kLQ/EkKOP37Qrjf+UW72+oMpiYQz2J3OYND5ptBRoQWrbUGS5aQmCcoobduTj8qbFvyJsbZb9iEd
l4YXjVqnXQ9AR9XHJeJlp0tTUBXshnmxMDqr4DhZnDIxxjYB3QgLAXa1a/lQnT8avS6m/k2DrcmS
jQhYi1E5xCGcl0VwecoOPmhUesStz/1B1uCTb9WWYx+CsK+1ml2y7Nhq/ANc1A8wAXYWHBCsdXr1
Rt0fwCTzJ52B6zHVQbIIjRpu6sU3eKz2xgFaT1cAVysmPCiNH8T7MYGIWUiqmi5yqigBtXkRBXR6
cbwwWhyvyQKn6byZT4CwnR81cOeTiq5w4PuAE6GrBaUg/VdH6q6QWhCTMMd7vWq9iVFatV03Y+yw
qNp4ieyNgPbJSyTm8L7k7klI7p5djNyV8VZ0X/9X5R8EOnBudxxtlWy2zX0HTcuMRwjY/6TUBcwh
bpdgzSI1fYT5QqbMHYNhVxh8bWPwZScpaA1K2kMtlyyaqvOcVp0+0FMz9rqgI0U+COrSjtBUJ/Y3
QIzR541dVskdj4Z3gZ56zFE8ShmyE5tUCBxBK6PFeMQyYCOp5QZjk8uACaHX/7+SXtHWmQwg7ywD
5X933jjCINVWyxqUQ2wmeK+BG7kbHbIRKFbDBpTDYj443FkE6qoR3nH/CzwKmLyvcDCYkpYdjGT8
mtwLbw2bwmDVTo2hbjzsvOGWrSRSN152UfCyoFcO/570Y8T8+7YVhRAGidggjbncGh/B+4MWVze8
CDI+iyUi6I6vmfDOgk6cd7r1b6xZaMdGqluP3bixymy/weKvbrdnggX3jjBm7+YE6nZmxAv3Z7M+
+LRcRDEI6pNKbgZx/Vtz8F3FMMTlIPDMJj++vzjQQ4165/2deyMRopnNCAQnNTRecOboXY0P+w1w
S3bwq6XptaBRkt3DXAsCr3iQg46pGTHHEArZc8in8UI4LD2+TAlkpdlugrqFEK/Z6qBWCeMibKZN
W0l/TzXPtAcDeWY9qKkOlf8KacwD5ps3AkVMYDif1Rv95ke76vdBmcr/DSvRIlokgJ33pjfpxrYm
fYPRY2t313T4R93qcahQwiFqnTbo7wF6tSFjQUjboX7DIjjLlWVC9+pcp4cRTdUlrkzAd3CcPju9
f7q9ZS9U1wz6wniB9PrBhTKfCfMHlWhgQ/UxU2q1FQn3R/gY+7Vuq/ZXsGIxYGrtfhgTA8yg2aLd
q4DxwTy1qt1oOphwIbgThddo4z6OMMOBUH3chhqLcwm4YWgcwYjzDrD8AEtOTUw4kW16EBRsFLrO
bl0Uos8jYGq9TjcCBP28JnhSEWCYgbLKGaI6RRfordrrh8yj2yI59iUG8IAaUhQsZWRimFEHjRjA
NhoxYCk0WFL03h5w9Va4yjNgur33TjtM3yFYf/hmyaPEmqM+DPSPRivEXeiD54IOa8hE97l246Pq
ZAEDgDB/Af5PP5xrEA7MTTu8rZaArVWtobFVG8D1P6sQBTVCqIRAjQHmWtuAmyc/6AF0Q6ksPf+P
LudK6Uo8q1OA6nldQZKRYkF+MJxGFpxpBZ2lY9Z8OnDGgng4JJi10C5x+bvqSioEAHa6tRCtQgD6
ITNOAOrDYIcGAPrDLmGvPz+bg4YlkHGzh562wp0SCEX70RaFQL0P27UQnjJgzDyOxVcRZoS8U223
rQweO2wnUFGRUO2bcq4yV9wFl7xpvCWLHQjP68nHzMXN6dnjYvIPxqY4TzPdHuUgsiYIYDCapBdq
WDDWOk3t+6+QLAIF2Bl8WiGtOymwbYFTaYH/9u0/dDpJcRLCZ81/NFpnjd67vQDzN+wTsoEvrvcQ
wqj79eBFnhmnJ7jnEh7stoEB/NlDeHL28e6eLPitdFlyzzT8VgbNTi/12w8A9VrTMQyS84RUBjHf
2f1+a9SN1KEfI8xCHzV6bSYKlU7N7bvYr91WWRsBGZkaXAfstNuYNP/3v0bP1ESIOA==
	
	ZofPSuUXZ4KYjgXOOoIZOyzKvc73dm/wZ6f3VbGdF5lpVKwXjzvtTqnzZ9vYAE6O8th+61hmnFoi
cb8ca7lkHM1r4WVmtnHJmGS2HcIVQkZDTswoOk7GUdNaH2ebVuu9vV71L4cKvrUu9pvxlmdjzrOx
llTstOskPjyog6w335sWY482+efhDmYQtX4Nq46uEEWWb8MmmJdt5AiGq30Crg32PIW8amm3bYhj
3qoD40COcehzafkG4YMk9Ake5Ugze0BOFDkzbKTDzKISyc54QI1r12AUL/o3ELL8fqcPdKKbHjMR
c+KpeWM6udZbFxCDwAyA4j1HVRFn7NhRrKHT6uKSWh+KfmkPyQVm7vJz+P3WrjZb/dDxy/iOlSoN
bZ3MO+DS7UYAOrO8YwfIYdS31yiiQQmWlWbYSoxNPNDi4PThfkWTs8+qver3v//fAQgcSayaCxLJ
+kKjbYb+DeK21BeG7eR7s/YJmoo+kivZaDtLZWapfqnMJa8w9dNv/DNZM1q2e8GzqrA+/4/OEB70
/v2vP8Bc/NM4jaVOFCF+bneGfzSqw2SrYXdahxl39dwZuhurQ3T7z2Tzu9vp4Vkc3leHICkwUa1m
zT4l4xswxAFgLmQZxAiMd/JnuHDQLpHE6jJ28dYEAFc/bTwWAPyBZh/H163CmKrQWn/QNFKx0C04
C41kfWghwMVTINBrrdfsRqQNXfMe2wAYGhjUYjSXnDc+cLNNWBrHhcMOlaWPhr4My0zZBgAm5CA0
OWVBXvaa3xS2AUQg5L0YVNt18NXjYup4VmGtBmj9sw4w2l8hyYP4O8XYaQW/mR3Zr3HZWkqyMJwA
Ji1Wu0ZQ0Ww4xjdUjTMNfQDyYTvrQ1nDWKnEOXdChZgW+tzQaH+N7JyXHOkOX4JlvEBzwng+Ynj+
2CsJN40RnEKWhWeF9HaUYnD4QbsG3OIZXAzvmVmgMZpLtxOx5hnAjy6XNyCHGHurV3iM4SHsKMLI
EuZIl1mkXPy2ea4fPS+ryQxAGNFV0Q5QY8W+rB7B02j1Bxz8T+CcYlIWQRxInmv2qTQPpyrGUXa8
XJBEhbliTHcDMVLfKf7hCoJxep4s8YogMIWC7tr9dji0yFVbg1qrJ1khdVTjVaeMIqJpyd10BLRg
QsuxoHkfdOhkDHw5liCUKR80vFHRSjWbis46h/RnWK33movsxCU93Iilev8UxaOMBS3Gm1CJntBw
4oge4sSZexOLDDmqNSZpeC58gw0NGXu6BLdAxuPFeJwrjcKLkpttBE41SrNktaBJKnMTDv2yV7RD
p2uEEVvyJFgqRzAVVkEWAS1mfp/uahSVI7j7iuJQYQSVI7jZLuagR4OOxxSiZ5DBU1VzSkJZjgjd
ZHzr42ayCMkYXaxjTp3ombpQuaC5NXNYxeg1psIQI5a06LG6CMPKHtEoUWelnHSavbj4SBQ+hUiK
vvcaEGmHpnVcOPWqXdaRFkHwuG/IWaiLJqUbPoRvbWyovbhRo+W9o43S7572I+38SMThPYON4p3R
Whc8rYcLtzAqKYXRGEf0YB/O+uKo2IhebKz1yoP2VxLPp6MWKql1wovqH43jYWvQBLd/270B/D+V
/P+p5I+a3f9U8v+nkv//ukp+ZxsALj5gdq4PfO3fQoBrUsbq1MC3gek/BwH85yCA/xwE8J+DAP73
HATgTdQ6Z0S7jzVGp9M47hi3gVnPEiThTP+Cyd/ti+LBgaaUGrg8ga1mN5RXNbt5/Zbn89njXHbz
cyDhJ1Fe+7Ui2Q9+2Z/Ig1Vp83KwU3rX9772Z8/Xq6V3/m7Dfipm188Ln6lFaX89lcsvnCfSqezG
11pq8eReTy1/NuHR6zuXyg5XLlLLx7elVI4/Fvn8+l2GdK+kiou/5L7YPwbkSl/y5unrhrSjSVrh
vvB9v5Z7LXfUG4mvO0/5/ZdGMZHu9TbW37aXuyeHW0d6f0PbX7vhyp17+Xq393jPl+7Ld5fl9e31
mrC0rbb5/GnjKrtx9yTyh2fnRX7/VcmLr6n9U2F54fM6EJFEOgYqvd5marjzejw83t4v1E5X5tvN
pT1lcLwFOFxfbOUHfHnl6bTU0V8vctvw7uE3X5+/K9mddsm87LU29P2536RtQPlt156DeQK50V1c
65K3zZ6r5zvmp9fDTfIal+8rP/DpousDIRTra+X2pZjR7+YAAaGNfZ86M9h77H9onFTRhtmNvdS8
QwloVtuTblZn3wmaJvIGcpV+r7fav+89rZ6d8nn5IgNjQWydbuFd4VG+/awsMzt9+tjZD+y0IP7O
p1id4uyv9t96z/nsDenW1+nJzuLsVbdVYXXan30u7AR1ur/xS21fk04Tad9Y5cXb7Grt9JjZ6Uz5
WQ7slC/vHG2xOk2kodvC7Fy7t7jOJrB898yX308u2J3updbmhcOXS2ane/viJekUecxPYPF+4/KV
dOpiOWNWb3qPw40Kdrron9PMnfTQEhahU7njdAq9GLNa4S0Cny0seDpVlO+XblCnL72nz/ZlQKdb
1YJanhPIvNDdGp0+b76eB3W6PydlVh/Zna6lnvqzn41zT6fQi9Htr+Lixs/cd4XVaXa1tbIR0Glh
dvZneK+yO5XvHvjy0doZ9MIa60z5W0/LJ6VfrE75cqd5GNjp/PFpY8/TKfZidtvg937N3rMJfHLD
p7/y1xfQqdr1Cs3C3otkdnqXy3g6VX6+Ls5NPSbsPn6VXWO93+ArB7qEnS75Rrr/9aPKO5syq1O+
8v3e8HRKejG71Y53n9+COn3mT1unF+xOjxbujziu02N2enEsqSCVQWOt7MlHckCnDzJ/eXCxGNDp
cHBR2XtQnU4Taarba37QDOz0snGS/wzq9IC/fl7YYHda0RcS6etM6mSTOdab3PV8YKc325nV2aBO
m/z98vqz0ymMher25KDxO1VbyjA7fXqbOQ7s9GultXAY0OnjJnDy8/O2zB7raXamuwQyyez0VbrN
BHY6c/e8lHc6RStGK4hUr1c++8JOsz6hORW3sjPaWg06Xfnx6qSh0L42O/3SlzydJtI/L+p3j3Qr
Lmxk9t2W5iy70hnsYqfLfkm9zKdPm8fn0OlW3zvS3ZMub3Y62MzCvLhVYZqfezGERnwarBy6tdIv
fnf3qoydcp5Oe8PXdGqhkVHvoNPy0NMpav587sbodlM4ynk6nbk8vDwnnUqbV5UK3ak4aKfE4qCG
nfK+kV5Lj79vS2tL0OlhKpH2ErjX281aVvXs2/M0JeoH78FPpdpBjvXUtGLZjfVOK/BtUL3zvcCn
/O5afdl6euEzy5Wt/Qdbw+xd+xR85fzyJeRp/bUW/PQ41fpwnvooxh/Lc1zw26fDr9/BTy+udZ31
1KQYf/G5uxP89uV55zTwaW+wLFpGbe/OJ73XV+qPQ7FHr6Dx1x/FYfDTm7mzuZCnhceM89RPsZv9
z1Lw2/fKQzb46dNX5pT11KLYc0a+DX77+eO5EfgUzPvGRvBT+TpXDaGYsM69XwU/3dFlOfjpyYbU
CaGYcPqzshr49sp8t/MS+DQ1ny0q1tOXno9iqbnjjS/r+ZtX96VEvvQd+DS7JlZKIU9Xz8sOxYzn
XTo2lJeJk3geEJodt0NDs/31Swjtijv5w5tEujTbOLwobWYvLrVcan4In/bOIFRcKJZvH8t1sAYz
JfIiNDG7wAjMZ/PN9bdFYIGZXbAGm+cuvdmbERfWz3Imxfqz13dn1Fg3ZqUFEkga4c5K8eHOUdb5
Y629ANH57ZAEO0CM9zVWp2ANVgSP3Te7NX1Ufuk4oFMIdtTzxaeATu8eWZ0m0sZYZ8pdiTVWM9yZ
vb8K7HTh4I37sDrda9GdrqUWSae23Zcv5mgCnyki1Wl9fn7W6bS/oM47bCq5OlU+FzObDy1Pp+iN
mwR+osfq7nSmXOUCOyWxQ0CnhVmMHF4du+8eq3z3EtLp3lwhuFOMHDydEm/cZCX0SKpBnZ4Hd6qd
HF0Hd4r+iEvDQLdz+HzZ/pQzna2l9XwsOKnIs+BwLC5I/nVpZTtGi8RRc7QFJrdk4w2/4C74sj0b
+t5tUVzY5A+QMJI3FbexvLtM/Snmlop2qA86SZr7hb+dO9IERFVAXrI7nf6JgQV8KmH4v0t69qgm
6P7qDL7OY7w7XLI6MBxoswMKm7P5rgVysWXGYo7a4w+VdNr5s9HN1C9Nf5u04wguAAOiWz8GiCvf
SBDeyX82Smn8A36yTZ0lVqoORvBQEqpzC/s2AWnKb2zsps0/y8edQJQw3jeQKvdDkZoVlq+EZfzz
QOdrTLxOKZJvZnaPPCQ3KUYTnfyp3pacmJw1Pmlu9agSNT78g5NDMiSBM7gw48xg4PyhfN7QYZh/
fCSndPYdYwZjzB/f+N24ZvFnIh1ErLDG+l83IzG7oWFY7N4Rdp/6e5NwlsVXq1wiPR3KE9cokO6J
9GiUfy9yD6NrBrQvDOWz+7ix5FY9u17VY48+hupxInGk991yz0VAG2W36mmccfOGU+an3S5G4gce
bNxS+TJcAN1+vGzTjrlSAcDPu+LTcOeIrbYDpNLI5vkZ7S43M/nQNld+HZv2JYTUr4vzRIYCEFnu
2hIWPCoi+0fz5uwz2H33sZSbeECkl7suzem2GLo0zDz+OQ+cJv5dmLkLJEsiHZcwYVZ6J2Myzfpx
3hq4kRBic3JX3LnXD8dszCt11Zm9LJE6K6MIn8uTyB2NzZs49Myk7fNbc5lvzq4skz+mFiRrDQy2
qM68zERPJ/lj55ONNLaPO8o+LUg3tsU3Bld5H15v0mKA3a/OHIuBDJv/7GTX/V5YyJQYfqKtCA1/
bC/KC4uteup7wtLO77LHLJE8fzyfkZrfL20QbpY8VLTXkvzzC8g/D6fiPe1hL25N7SfWEm14g1Fq
zAShBJrfxicOUiyXzkLp9NyWWe/82d6FawajXLrY86dT9iXWDIYR6zoXzgyJkRrjRuIspyn3OrLZ
WH7MxhhN8dOkmDBNionTpJg0CcVMs2wy2rKp+V2B68c+X1+o7k7sHYs7t3VKbxh6LDiUYMvBYDMV
270OksqPfbeNH18qB5tzUTzmC5TJai6TOoN0eJiViEGd+ZGow6INjKVRfbmKGSwwHUMYy0uEHCfi
oDJKiMdEJJFGVCJENw4iHt/SjYjtW0bRJEJSvZFhdWaw5xgoyuvbJ6nrUWLyrCfFTZm8zUypBwL+
UKQ9JfGp/zEYpYOgpMbvA1ZobfswLPURJCBP/Z9AG89EydSWLKSmpADAU0jHivfjKICnQWZ+tHg/
mOjS5vXlcXyNbaHkty9P/c8ISfZybYAnf0AWBC3fclKm4t8Xfm7DNUPCHfgExOTA/YMR04qu+aOj
JCSWPDVi0QIeZSt9xPKIuHDYd0ScYCPN6d2hJ66iNMwoeb3vQ7eIB2RIrEyClVNyM5o0t5KZCw0a
4wYVh8R/j5EhiZGS/T50++/eoSW8gwsYmpyZJL1BsqPfh16zPHreB/hg6A4pqQEl0g==
	
	rNliD0j/kQLD6PC8D8Vjh2RpeMK8D5DlfSVzH5rr8+ZAXBG9mzoh+Rq/KsBeXLkGtzOd968BdY/c
rnREB8SVDpCXzavs7IS06x45ZtCYFz8+cQ3hyq+FGByRiGMIYWgrk8tL98htAyO0UgAiaSFwVIl0
OKfbKB85lm/0ATmcDLzjMXpjKICVXym3tZOC/LEowhRiTLfHl6X8MTd13L4smzqxfFlcqjJ2257T
0w2/ji53rIGjCs56Ir4xct5YmyCHaz7D2hmZq3B7h42txCCgkW9luR2UTsbG1gcT6pXbC7JIEa2T
w3PxOGsjmzxbW3racQeSYyyZYCu2/Fle37jthK1UOK0k0lHt+C3f6HbPXOH1rhCO1Jg7LY7LvBmP
v4lZhd8NLlxpxE2hYVM8qykzeh0p7sLGlkIWfQLW+AKcCNwJGouUtPvJ1GiWVKLx8Gs0+G0qGg3n
pf818Spe0belwqU3zMxVTA8eG6t4g5MYGo1pX7Cxs9SkGu3K0WiTyD7MWkyNFi772M7kGg13Dk/u
UxBsprH2StpxazTX0ssvZxWH5QvQe+CNKQtLkrmWDtkZty4tKq+LWVZu/PZ6Wguwe3ddJ4wO8sYj
PTOcTqZmZCnZRDpCzUJjwculcZWspZOhsXGDRkqYdx8fmWGPsfYaV5yvfZua4ikFL49dT+Lau1qh
N0AYHux47cQPqAOzo6SdkK1HUS65qyniXUwtV43j89tC3J0+Jf8e9Fh+8oivCIrkNtyABdtC1z5Y
s7H4+ylC04rY1NusOwc7DqPdsPz70a0YzOXEKS1z9qdgDQGbUFsY14phO/H8e1YrdiRO2hnfGnon
LDyfPLo1zPmTW7e3HltIr4qOag1feiFJZXrr1DK1czhw/LeYqNsPmBKalI5ABq++FaHbt3CPMran
C019zsbR/HGkGxr7Cs+h+/Zah1AsjoiHBZcOJ7/0Ysl52OopigLHSl07u6Eit9O52StMSH3CZcxL
qGF66/sN01t/JLOEtjLQMBW54FRknJ1r7nj/rc9KA7LEK5pV7qa42xYa8+y+Cg2e6cp6dmPCUWU6
GZK3fqx8suNi+Hch2jOZZ22+DVoTD3AxcD9BsKfv4ggaJfZqAkEqJkeE7VU1hcLwkysqO7Jw1cup
7w/vqnWIyk5lt/e8/uLU0IVX0KEem0YNXXgFHTm7Ywo1dKxOnQo6O9szYQ1deAWdVZE6aQ2dbV+Y
FXROhmSyGrrwCjqnWnCyGrrwCrqAasGRa+iyoRV0TrXgZDV07jn11rFZJ7dMWkMXXkFHVdhNVEPH
cDCLoeuVY9XQhVfQEZ8/dENycCXQejc66HXvgQ+uBLrL7QXEAfFRIvJSDA/rZ10KPrg8sB+4y8Xe
1xezVsCb6Q2jU0Smt+S19mNP3cVMxD6luHTquA09Y5/ZcScRsxjsoj0andxNUfFLyZe0Gn98ns19
7voXa4TxxvcYXiZKoRRe+TjfidzcFwulOJmrEDrFLJkL3acUk2F3Hw8CS2ToncMRBVRRa2CRW0Fs
D/Yul5o4bWwN7c6b+mLuUosY2uhbQXw7IbHYLTuFwkSX6I2Z6cVitxGWbYLqXu+WuyE+f7wFBySL
t84iViAS1FhElJtIhzfm3oK15HciquWomDymTi6zwt6Rgl4nRq6WRyoyDSkxfRN/PHLs1smjxfZA
rJC1bDpNQu9UCUscyv78/ZfWC3QnRlyxglHdBi/5xa0Cs+v4otyu+HV8jB3G7ng/fh1YRP0LMm7G
QSlwlae+597r6DKTo5UW6rMhe+CdyYtXG+XOYDL2wMcuLvRmMGPOH7uOL6omZgRmIKcguOz+RI2F
lcgYe+DjNxaxq340ioXWzIyI10rmfmoUCz0KIZpinsTvYOPHs9VJ3Ll9jnAbMXMVw8EebAzjCntQ
3jKyXi68CWwg4iQRtJVntwL5EyHdO7c/wdIdvtThXRXdjx/ssV2xfZZ68Gato5qIPBrFCRAo78lV
MxJdKhc5Qxv90Dpxd8zDFgsscYuSfSYxPFVpsYO40Wrk6H19bgMX5LnggMKPPPEEV57cuNuPZKx2
/j6Iqop1h5mBnHwwYnonXnkcs2LIHa4GVkTtzk7NH3sapCOKWmMsbhr+2MGI6Z3gMrvsAgslagdR
TDqVBjHSOx4WYGauDkbNyIQVs2FGxhVXxuRLP0pRwuyxYiFIjZaRCdyd7i2LG41O7oyMNKd/5b1n
dxxG7eaLl5GR5lZmmDt2Rtql9n04ZkbGvwceJGd+OhkZGJqwMPEOou/DuBkZI7IILEOL2OsYnZE5
NPfBTqEMLTIjk4hVnzdpRiaRRsIoo5fnBFCHXZzj5eR4peYrZwNvHermVTp4L4194kG0swze3OyY
zEBpmKOJkzoWcPfIk9Jh5MZjJnVgaJm4Q0NODipDi7lpL7x8jNp3MUldXZytwInourqJzw3rHuEe
+PH36zmECVfWdnVtZBIUqaOOKb2Gb+nZqpdhrKReTGLoXCeD2RVx066H8+b5Y++pG6keLuL8sSnV
w6HsTyp80fVwcXeoTlYP5+zroyviJhoVQ/7GqhYcuR4uaGVkuvVwRu2btyJu2vVwnhzs2B5eeD2c
+5QAynZNtR7OnbX2brUcrx7Ov+obWC+2NempBFh8ZPkRQfVi8fdEXsXYE5nwkDBwT+RVrD2RkbJ/
3Zm4vB6VUDbmTsjIdgKPtYi/wmu0M8pRJsHY2E78+JVc2E5I3OzakpmIFkMsrgtOiEWXE4AQuk9o
B9/LL4bw28hiyMz2FGPsaohVERXgztsnTscXw+uRtiYTIQyrsZpADB1qEyGczBtHG77MEkNPK1Gn
AZN2RhdDX/RqtDOxGJJWgmLp+GfdkHZiVYf7HXu/hiGNBS+7Rm4jd2elF8iRwN5bALDIqxJxuESs
1ae9x5+pVKQKM8F7OkauSBVmYhWRxqtIFWbkiUMXoHaDWXQzWkXqzZQqUm+mUpF6M6WK1JspVaTe
xD8GOiqlVUyk/cdAuzYsRO9Y8oih5xhosxf49SrcgMUUw5BSOLIbarRqnTFK4QjF2MScYikcodhn
jDOtJiqFi5m3nLAULjCunGopXJDdn24pHH16drwa7XFK4RJx9+UWPccIh6gC/4nwDItc5CY7Ed49
SKpacNxdtFRjoXsCXT5MxK5ArF4LPchwFB+myI2bnvTP5AsX6zStsK0LWH8YYvIojkjERSomR7CN
g5WBd+QXb41jsrM5B+SCzP5HKtf+9ZJavn7eTeW2pedU7lDfxWvWi/jpLrX8+fsS/2ylsjXuMJFO
LZfOi/gHL+TU5+wJnfegbH5y1Z31+kK6R8usq0JJnhFXdHqHqqsEbGY+rNiNy9H84uo0uyZ+/GJ1
at6OjddqPwQVu92HFbv9Dquwez+5cK3yuEvA8FrtWlCn9bBarJ0LqlO7Fsu+j++z4ShFbwkYXjVt
j9Rb7HYX2CmQdz2swo4v6/xJQKeF2bnzb/E5qNgtosKuL7PGaha7Lb9eB3aKd8l+BtUScqEVduXK
QmCnvf7VRiqw09TWU+7SNacN3czzk8/ORCwW7+vfHkgm3PPwux0JR277fd69PY2EVD5NvjNNJxYd
PW57HFErS5P59phTHEt5GHxLUowtt24PlrFC9FDynqkybh0NRmDlgLQTvWYR69KvqHu6AlDy7rkq
eZ3gsUvFylGnNE90kxwru5SYxk1yMbNwpeg91DHptLrECriC9/WNcYlcUBZuKTCujL5ELv74clHn
wMceX+RdA/GRir2z1IOSJ6sQfX9cfJSoXBD7ZknmdteY1XQRmd4pVdPFyMNMoZqOVUvn3gM/jWo6
1tAS6WlX0/kRKWXjrVeOUk03duXjxMvY5OSWqVbTsciCY5luNV3UCSHTqaaLY5Enr6ZzUHLi5tCs
9VjVdKw8i7EPdprVdKxaOtbensmq6ViOoas2YSrVdKxaOua5ChNV07FUq6NhplVNx0KJ2JepVtOF
eEpTrKZjOackDzPVajrW/EXfMDVqNR2rqdFXeKOq6VhNhdRXjllNF0CxKVfTTY1ikY5hOMWmUU3H
WkZhnAM/YTUdq5aOcUfqhNV0rFo69pldk1TTuWXbqKWLqK8co5qO1UDw/uRxq+lcFHnJe/LJ06qm
Y7k0gbI/djWdixjmwmmcU2jGvXHOIQbjhMMJq+nYuzsQKWUMMXQHgOJT/41zB4AHTgBoS+W4hXTt
VAw2TERu28/sRgo77V0wszlEJ0/1vrqoPMx07qtj1WIFrIoCUgsT08moyES3IqYei2CBzxj3vcZE
KrYq8KPkvV0utjhHoeTyAKJPOQuhU2xhDj+rE5GqyI8jq0x3PLQ+8N/+g0VVUfuP4mTm6Gvuxt4N
NdI1dyYnB7nkh6PvRwzUMFEX3U18zR11f2VUId0EZ4JbO4dDL7qb+Jo7v7aMqjAc55o7T0aRfdGd
jzCjXnMXysmxtj/FueZu3HPhjry18eOccwWeaUSqMW5ALW1eqQtxakVjON1H4RuA49XywNAWJ8mi
Gqs8R2PuPfQU0gUWFdlxZcwL6sbb+0vbSqyhi1MBG1lf6Nt0GHFHapADjZf3jVBP5L9hyu3/oo5c
8NUTVV8imMFj6IL3W16MJHeBNVRT3A0FjU1vN9TZ95jWzlv5GLGxOV7l46K3uNeXVYjZztJI2LCr
n3hy09E0RrUca2dXdDtx7iaLtbMLG4souAvdudZ174V7XVz0W77byymeCgiNTcXDM/FyKbN4N00E
krI+LwbfkxN032toKYP/MGasxFsJX97zRuKBe6ivOxNXlBi3zESMOn7FZv+LqTzGu8Gw/xXrnq4I
2XdOPp6gdODKcSYmumPoKm4hQ/hqNWln4lMCbklWYfLbqgk2wVdrbSGPjVDKgPsp+MD4e4wV3gXG
zgqsxCuGEzBuBt51x90EhV3UmNk7ImKLYcwb7mLdWz3xDXdO5SP7jrsRKx8DfPrRb8obp56IdVPe
5GLoveFukpvy4t9wF54bJ41N4YY7575X9h13ExfWOtVP5zGOx4gs7Apzc0Y6dxSvkxvLzWGdO4qN
TV5Y+/jj7HGaqPIxF6OwNuqcK9LOxNks0grM/uT6F7EJ3eiUiN1O3Pp2VkrLnVMi1+VNWN9OL0Rj
WRQKoacX+HUqYgijehgE67GIMiYfKVcycTZ6WWenR1eETbJ50UexaR1tDk05Yfs4eUs3xQrTiith
Lq/jBKmBRUwkP0ZuT4xVxhQTJS9H0FmFMWpcd27vch7H0Lc1g3VqU7wa17d+3Ose41jku4mve6T9
MRjmV3hYFP+6R++ejaCMYqwa153bQYxcdCwf5m7i6x7tfbBY6jl5jSveRxdk8rxVz9E1roDSKNc9
ElIx9yk5Ljtur630Gf2Zrh+WKaWWjlYFUqKHZX0XqeWX+mVq6XK7gJ/OSG1fIp3KHb0ofP72SzVN
z3rni0bPyi65a6cywfVw2lmep+n50pshO1Tte9jmOl3a1LnuYcu8zZ1/BV1zF3rj3A==
	
	c86dH/OU4e0UTgM6LczOtaXVl6AivGdPp4ZOtu9hSynBne7t9e7sTr1FeLM/heFjUGnaUyIdUvv3
a4u+R9BdmpZdbV0FFeEpn0tbN0tdp1MYi2uswbV/QOAPPrBTvvy0H1RuiFVp6a/89VtQ7V81pNM9
fiWw017/43DW6dS4940uw3ucLVwFEXg5bKQH8545RdHMke6NavScVYQ5rAdC0nCns404cDOn6yl3
nj8Asjd8+UpTZhLH7HM6LcGFd5czHtNJwqfAu59OzxknOoRdQnA2/+1ZDXJyp5PfYtYN3+LByJAE
1/9sxb7li4WSfTLY2XzkLvd41VasCGS8m1nO5iO2l3rSuTj7QYU6S9tncbagRU7dwszUqtJCd2yP
VpWWHYlOTlP+O7mgseUpjc/epRVz92DI+LgYKFF3cIchFXwBfCyUzNWE8DzxiHTy79JyVqxOr9g3
TXjU1d1y26uuonPMMe9MuVsOLoyOnYPdnVo10vMuK/xlnHAYIwC+y82MNDTmKs/uFE6ivVvuOnmt
sfNjWJ8WJ26OONd6dxqZZawBhAAh9DbGeISJXS8WGbVgY66iotEO+bEzinbVLJ4W5/ZDyhPfd2Bp
mOrMbeChPCPFyGVWMph1GnCMVW8suAveM+dLBFhnQQdkVcqBh+HHTdnZUmlOY9a/gaC+F3nqQix/
BMfypQXf0ztqIdnDgOWP0HemxC8FjDp6YYQaq5EuFglBabB5GLhvPNobd6Pk0vfeQsDECB7llz43
Zimnz1MC5NvhF/GMMH++9f2JGou413iWOn8surGoW3QCm/LWI+/5rMpEg4yu5RmhsYiVy9EoFnWf
zkgUazC1BLNcONg7dNUAmvZlzCrAuDWA7HNIApoY+0Y92+sbqwowbg3guPnk0W7UY/qWsasA49YA
RtxiFlEFGHeGmLWisasAAwyBrwYwtMomsgowmu0DTjUfqQowbg1gzBg5YPUtvAbQxMbe13fu8Z9s
SkzpUr6gG9mmeylf3CzcZJfyJdJxvLlJL+Vz3cj2t13KF76SOK1L+cgZd4E34E3rUj7vvou/51I+
1m1Z07+Uj3F/5QSX8nlQ8pzc4vaeDXwiSoM99/pZFVhTORsq8F6/ESu5pnQ2lPtWv8nOhnLu9Ztk
t238e/1Cq+5i3mUTfa/fxGdDxbrXL/JsqKnc6xd+q1+CmulJ7vUL37Jo77ib8F6/cIfdtYNognv9
7P6Yt/p573oe916/8P1MpP5lCvf6hd/qN2He0r7XL3xUUTeAxL3XL3xApJcp3OsXfqtf7PrKiHv9
wneceWsSJzk4O/hWP6piaKJ7/eiKEv+tfmNWpfnu9QvPLwSfQDXavX6hflSRzP4U7vULX0sZ5T6+
yWveJ73Xj2qFYfLGu49v1Hs1WTUj49zrF4IShLDR2jLevX7ht/qFVD7GrxL73Yi44TgxQpVY2L1+
4bf6seZlnHv9wjZc4y3M/rqHce71Y0m8s/Vk0qq0eAvD1Pr+RPf6hS90UZp/onv9HGqz/Pdx7uOL
W/cQkrka814/ZitTuMeq4brXL7yVsGqOxgj3+sXYbTuFe/1cYui71c/0x6YkhkGnK49clTbW/gxm
xdAY9/oF4+U7SW8cMTTv9ZvMG497r19k1fNU7vULv9VvxPv4xoylXR6s/16/0a7i8zblOVFn8nv9
vFW47lv9mJWPY9zrN74eG+Vev3A3xzjddPJ7/Wy8mLf6jXZqU/C9fqPVvY57r1/4rX6T3McXP7QO
v49v8mJ441a/ROBaxGg1T+G3+sU6Oz3GvX7ht/qxMvDj3OsXfqsf04qNca9f+K1+Eedcxa95Cr3V
jzoXbqJ7/WLmLSe81y9wJv0nT45R82Td6zeV3YOR9/qFO4aox6Zxr1+4Y0it8U10r5+PlK5b/Xwr
I2Pe6xe+YuOprh37Xr/w/cCe6tqx7/VjUEwNodiY9/qFW/NEcEnsxij3+oWj5FRxTnavn9c4uI8g
tnp56n8EphW3DMGNOsR0kfdvbLh9IInd4Iqh8I337rLFsielVaRzWK/plueed3Ta7D3EhmI2ibBI
EWZDOes49PREolj7tq/lUvPD3ZudmxT8dtF1aqwaxV5vXdzZuHq6y6TSbVVOLazw5dRS5+JXSly5
OM6utlZ2shvrva3s1dHnAr970pX4sr67xZd3jnb5veXhOV9Rdx74ysN9jT9e6nP8xeqCwl+8bKJv
efX7rc5fL7Q/+euK8MNfdw/n+JvNtxL/dPp1xD8NuFv+5SDX5l+XztP869rzYq93klvo9befCr1+
Z/6gN1wZPPRnuzvvnFTRhmZl50fnbKOwkDq+2kmLaiKdqS40zmav7y835tq9fHlelF9OFl4vVrSZ
y8NaLntZPlvY+LXWKGTtUsCF/cbjbk6tzP+GKcmWsewtl+o1n/Lp0+bxOXH3mZleur50sdnSU9mW
/Mt1BSTeJykv3mXX1nIrTGIRYsBw5/nX48wvz0gTac9Ys6s1Gd7mNzf48uVNmd+b7Zz1+tpNnVSS
2sWhl9n1fI7cRTlj1CTu7v7O9/qPnVX8bdZ3srEhJY53tbHepXxnw50w860VnV6TcfuJxmw87aXx
0sx6avn4dj81V9LOUtlaDrRlKvtrZjWVyy8c4qeTlF7dXcALNE8R6B7v07w1rtyEF7cQUUe/zht+
TWOwpZFZ2/7uVPrbRzc3z9nScnpYzuwfHEAk+v2YSJdfFh+OQLrvFPQ+5lDXQOj9OpszwtAN5bGP
X/OmOlb2F+xPGbzLr4VZIbxeZ3/JqP8Fy72MX5fNr0WOI7K/z9kv5rO717f7iM+jtHnd3Sk2q3mB
z2/IGRvRJ76eyaxYD1aWnAfC7vPKmvVga9l5QPKWlQ3rUZlzHoHZet6yHlR45wHd/d7KIo50ke55
byvr0I70nEhbj8o55xHxreG3St6wEfm9Ux7PhctKc/ogBV+vRGx7CTTMQDcbOCtmEWQZ/qht+HqQ
s7TK0DrfEn6tcASIXGgDX8951N4C/Knj11ujWWnzss0Z87c4xy2S8JDP3x2QmYReisKq2endKUd6
kXY0SUukVxvPi+/Fz0L5dKelzWoUc9qFmUZj7jjWE39Cs+d5p1lPoy7ZH7HZK95ptnC1vlLcvppf
fS1+qkfd7cvt9g2RMHHnYenZ4uTF2m1za7WS6gGjXUo2o73SM/1WcdimCuLKfcNv5xwSaxlLexaN
T9WZ6xz5BMS/WCKf8BaAe2kfFcAdMNXaAfkEk/w9gCY+FCI5xBLx+a8rDrMhAsyftkAeQNvbGeNT
da64bmLzVRVtbN6g+atNm8e+PuTyrniMQnyv2GN5kzavyhgvvcKDwn2ulK+uza98tBeuymu78m/H
0JvGeO/2l5m3M/6Y6UAnsqis0Xw5eMgjjsh320vGp93Hw6zxicJ78CGR38Sdu+yuB5vC/fd+q/Se
7l8m0ltrm7fy9tEtD4pUeVJAr/zKEF6V5pvp+d3a148ebtQdN4DPV3802yk5cbJVhMfIZcSDeTQt
G3gj8SNRpKnsfWYLVeYjnlpwiH82Da26/NM9NUDI6Qbw2zU+LaWWfmZ7/mMN8vNkVXQ2Y+mx47Yp
7KeNJUP4bD4hmhHPmMeia4UnTUibN7tVwqQYcnGmBkV5AA267GhQI6eUF0u5hyyfV9aXLRbYzxFP
CX4rcug43Zoqeu9o0QzHlXKenfhVDngPH9h3cYLWxRNSOI/CJSMFjVd/ICgLy5Us7lo9yhEcheWP
9XzpcK3DezQt7mFr7bRm2mUhN3fwCbNvyuLJIpkow5Hbq8xw5vhAw+JMHyMbqsBoWx2iWlHL8UDP
8x9DqypvR+iPnRikFPYLlU+7ZfRgya9vz+mcx4V0h33zLq/vZRDu9RV3OF4Er+/uZHu5y0NksV37
dVIubWaVw+3lztZi+XJTvdveL7ye7Lwe3xT1Xa22vNt7Xnleva+0N/Za17eP2/vKA7+V73c/ieNI
VdYDeRdw6rLEQJsnDJRfssRWXnQptTfbLRZ3vhbajyVOXeivNvTe1/bFMPWp/uyfV3ar1QVu974+
80ncCcrNS3eeip7QxOmU9EJ36+t0pXK+tbLbaO58ZTK/dvfPmsLWz3Z+u3Tw3eyXSy1hx/LWSk2g
8fkA7wE/MVyojeF8ypdRDBywp+fVo7nSY2lvb/1r+7Ik/cQYrnlvNRkwtph3QilHh5CFFOukhjxK
6hlHhE9c2JgpWdprtr+bbd5/bl9e3/Q8PSfS4aTGnkVQhcLBWD3fiCWOW7tBKzZ4ErZWD7/ORyP6
5urGfOB0/108tvTR921BN7WluGCd3GIerXHcRlWYM2SRX5zTeL5fau+cnm09lUuK8rp9ufo7Uzp4
KBxCz5kZsBplzpbFH2LKiFRuXL0s7Trz7DnZeER6x6U2yVoTeg8WOHl/+xs01YUcOPQxBw4aJt7Q
J2K0RHqkofsH/qhT4f+Gcv3jJFAdNWqu77MUqUuNXvGlYfXzhqjRrffL7upu7+ntVGm9Pc/Bg7PT
rXxvMLfzeiJelPVZZaOsz53Xi0+Hs/urw48N8Md2OLl3DY7/0t4Uhd3D8eREHa+wT6Bm5uZAtf48
rkjF0sv2ZfH5kcwA2MpYwo5nz4yv24DHogc8sW5D2Y8cMHu4wGi5dk5r8fV0u9Trba78Chyzc57S
FCYZlFl3jiVr6PNPqNZjyFoiPbFaj2HD4/IYbcVH7zmR/luclmgrNoHTEkRoY69CJKlHGC6L0Xyr
PJNMcqBcJdJ+yZqMx1jeGrFi4+gVEkvTyTZGumy5dC5ipHaC+TEM7LItuYzx2yF+XcCs2BMmyU7M
7JmWO00tdK/mzGBv4ws+ieULzLhtUGm3xV5vObWcel3AsO/aiRese6waZ+sQq6zfmQoHE9F2gLgq
bV4OtorN8nxv63rh9mers9+7K78s789un36sVYAw8lzp/Vf/nOSL+6mnhZI5A+v3s8Q/SKSl7V6q
5B71fNyed6uvu19b7Z/8K3R/fhfoR4EVc7sT+c90Z3m8Tn+V3ue7s6jP36D72kt8HwY6bffcTsQY
3hPY/fEdx9imjJxzFct2x/OedhZY1MaT88end9wxT2LFRvGUAs3o+N37SA6x2FT8h/CecfZHihOY
PUfp1+lF4uJgng7NSA7LovuYUdJoftu8y09GBKZoVUIi8dTSc6trC1rGR3SSBqr+5L0Kh1pzEgeF
1OLJvY6mYwv/7AAng6E4MX5YWphdQwtSQdNTQTNyhA84NDcX+LWcWlw7WcHlGP7vsS/jKgCibrGG
928IV2PYF6LqJ+n5urF1fbR+APJ3mdp9LZx+YoYkpmn9L7Yvo1s2UsEdNeDA4aKGOYuRjCHVHNOa
ZFOpX8+VPHkBwmPjG3Wx9rK0tfr4+VLizl97xff19htr4OS0RrYTNYEL5RUujJFHm/NxWBzGMkEa
LG7Pztm2scRrTOEyM/BTZjSmHpvEcYw1XJPH4orXmGNOpEcSrzEHbvFYTPGKI1y4QA==
	
	J+7cflLJATPXR2+K2fxQV57OjvXt/UJhC/6s7ey8nsyekK/6rjYU95ShcLF7s3NR2coPNo+295Ur
rnRfvr6Ar3x5Zb5TWinN1gu8k/oDze9O/o2f+gvx6nBeppttZzl0ifS08xSxMiSjL65QvB+kZP/e
GNnyotGDnW6egjVway1p+kEMHUPhvouxUpGT5GBHXPEI8afHyY+NkZmjex47PzYSx2P0Gh5K/J05
2LD4jc6PfelLY+bHFnqp3KF+a4QkEJyoI8UqLCknFtkr59vll6/WUnm7Vf0dQ8TJJ7KPsDd8raj2
Pg/O4XOy7yKuoC1kis3Uw2Jc3ebs+kukc4u94sq4M715vvS4fXn1+znmSiLh9PJLCj6tLo+/rMMe
bshqtTPg3NL8weokw0U/OXLA/uEuvo00XI8eG3t+w2c3Mg8Tc37DZ9c5fe7vZGfTik08v+HDda9Y
jT+/4cNNpKczv5ErVlOZ39HzyeOzMzW7ZoZLpCqGuln3TnxA6qxIbQ2ksc226aCCHKxCnbyNi9zm
a1ln/5S9Q9VXgmrt9MS9wdRGPmOvfP6349fwjRkl73RFfkvLJ6VfVvDRy7rzlqSJtc0LqomDx2XO
3cSn6S6ZbvOV6w4eYmf7s5Sdnb8XD11VA8YG8LVTp4lf/iaGrib25/fpPYryhXGVDNlNnN1YPhHx
bloSiS/vZ/EzZ/+at3/j4dMFWNJBpkf2RPJ8hrv3WF/jIp70WurVvMvldV0kfrl9AdIjuSVT3oNH
Auea5My3xbqLT8hFKWOH/Nrq97ktuHfGfnf/ZUDWxl0yLzuLR6a2JHPwxM38vrIMOIebBM86BJ/F
zOZDi2IlckEvoZiknn6Zu+/FoeDwdHa1dnqM+ylnCDbum4yyx0sUER560ptFhBXBIcJi8b7+bJGA
y7lIIP/YJHh2SABjWRM/ftlEuKeJAPjQRCAH/FpEYJOgunbikEB6aAkaHSMbtTcG5UmnZgnCUyAR
3CTgHN6/TXXyuwYJejt3D2ZG0eGEAD7YGlqMPUw5REjJ/Yd5mwS3IXywd/bt+DDkXi0mK4U2cdGO
0QCZ/cAmrjsT4nBn+PnEio0nEcZtt7FwMC2yvwlyV+ckwyCVjaZYGxQbeRiNwUg4wFh8TXxOylSt
lKcBKxKP3cTZdZsl3eGy7a4XO7vrjN6Eq4HH7qQa5uyFqaRicIR9C/PZWy+6ifswUjb6gdOJsm80
sTRHNbFZ/Om4mvgcjak8OBBP6Ws4mWycdVLhdDBkP9To9WasJu6+nSb4/eO7mstnerQ5547ClVxu
5+axuxcmi7gZJGxUd29MrYM8Fpcwd40ABolkUpvH7j6DWSQeDl/BDOLwWHgT7eEk4oo8dtfz6p1R
hzGcCcfB4LEwib+fnY3CQew/Og2kFq4/L+gG3t66lEUeS3G9NX5i4EBbZD8Wn+MyldXAV5+yyGNJ
/Ft7EDmdptqyLLJXcb39jKl1MODCgh50Ed9XMrrFYwSBzMOSjFm4W2MXwfLx7anh15GqHrsmE68o
y5tRxPqd7F7lyZIaI7qYr/zyQopgiG951rHqhC66wvLHx0aWbM02SgG/ZozyQKNSDSKLPPmKhUgZ
89PvBqniXDTLNhd+MEbez5pfVzI5o4ozZ/4AiBovvl+tDIyABauMqAJOqqRsQ12kCjipEWysZ6kH
WFxm175tFHNUASeWxVkPDvJ0vdHqx7b14FRwKjLNIHxvfYkq4LR7RnnZKy5Tj6jCtr0DDui9vCTu
3D6SsrdF8Np/A1vsnQtGUefmVQq+nm05bb+Qww7gtzKpuVyCYKCxY/r8mAXAIKCigUt+ClJydpo3
ijrxDgz4eiUYVZxGGeHZg5Q/vviS4N1LIP/s2iyp4jTrFO8qDllenV4iSgGtI1eNEjC7Nox1opdY
0QHNdtHTaCI9cbOuvMfiofZL1/bKWwuNy9JB3b69FEZ4K1icfCk6siEutl5mTUa7q8pUASfFaG+n
RsWmWVP7dpU3BeDtlhfeKgeL8OlBsE6ezL89ixv6gQjz9laVrE91mTRhTvLXec4o6sRDNuDrrVXh
+/XAW5+eBaqA065BxrF81SXq0XNKejGqVF+Pf9LmWL6+C4Gls6x0ijEg+499e6lTNTu4dQryaibb
DJ55YU/YysCnqmB9qjuFpzWz1m7wW/ZhowyuE+ny0uLGqnqdmzkuvx6nScXmjjT/0lf5w72sAnP1
VDALVI1Cz+O2Oxe2YGovsxZ20SqiPOuYVLz9yhon6syRG3MMndWcOZu3dVbfUjOccae7KXKKjCk2
ZdEsHlRWssL+3G9Uf/vLTqE5vHGNp1Psc8Z5F1t4KDlH2FTYe+bwkNb9fMBxvPs8OSHDPhZq3npw
ZOh7YZlvv1rliEdWFaewXEx3TZQ3tohayJhUBhVmVTQecVRJ/nK3yFtVlR5ldrhpzi5oNGt8J1nz
TBWzqvKZZF9OcnghQU/Y667k8Sv8Ua/3i69f2w2zbBz0mNO2o8yso4v6/2cjoaqqkNRkTUvmz4et
Ru+01/xotpPLidVEfvtAEK7a9U6512hcNv4xKHVqw+9Ge5BcSea3L4oHB5pSatQ69UZy2dBNqq0w
cuYgTLamz3xxpQ/JOtJO6V3f+9qfPV+vlt75uw3fERLS/jqudZ3jWtfG15qxg2/5swmPXt+5VHa4
coGmtpTK8cciWlTmeaZU0vu+8H2/lnstd9Qbia97NjWgX7Kx/ra93D053DrS+xva/toNV+7cy9e7
vcd7vnRfvrssr2+v10ztc9q4AgfxSeQPz87xCGglL76m9k+F5YXP68AyVaNa3l2oamaqAwtVNwrp
C2pzRFZXumfb+9LnL6Og6mbn+HDr/ery5OvX7M3C9n6hBn58Vi/o94By47Y0Wx/uFp8OXpvEY/Ck
sIXsl4p3X989Wwx+3HasnlNfD7FSizNrn42DI+56ibSpfQcZzFu9DExRBwG2PgkZNLUZk2KKSuqO
8RTBgy6pfSZfQXYfeqTs2XqtnLeLovHGBUqCFj5fbElcpB/og6r9IEs/qGRr9oMc/eBZbdgP8u5e
usUP+5FAPdjb+UEv6mSJ/u0q82bXKi/TDz7kuv2AIxoetMb+3BZv6Mr9XBmdgBOBJF+F/c1z/PqL
bvvtI4uU/WUctiHU5tQV01wsH3cMrVDLrWN69FfeaKW2eUB2Niu/BPOdX1ekWYlyNfZfeqYqXszJ
qFMuc7Qh3txatYX0fKfFfSxtn9XeK6Wjg9SFw5pk36FxfXjRrVM9F3HsiIv75bUYLbLaSwS0+Kuy
7igSZXA219h7utc+ti+Gc83d+/oZ2oJLweFf+oiQu2fJ9kBkMnCwf2TopU3VZpYbwxUWS7+KqGdv
8hbj30Dbb0+L+EmwzNwNObGgg58k+5NsNLC7+o2H69znzF104kuNTPy9fejKPW9/orhNfBWf7bMu
7iX6QelrznIvfiv2ERIF956w1kV6d1lfBMHmr+doZWesFYBCss4XsP6YJ3uZh8CBzaeMlzS/eIpE
fYI/dzcZwmNPAvmMn0Qa8vhDxt9kegOoic2v8uv1XbGU1RbL5d3ja83yab4VvvG2UiAnTkhza2uv
6Ejd26d7m9sj/KfymMdI7VinVNDX27s2rKkLdNk+KE9SqwpqchPi3q38YO0Q6/g3iTYllakEqLSZ
vbiE336uAWSptPEz912x/Fx7+dGYusNvU3sB5oaAV2cOyVEjWftUXKOYdplDeiPZrMN3bDcGvqo9
ojcNn2dpe73r0psXshmWrWR+LH9pK0cWIjFouyerUNc9y4FU14wTNyCKe2Ce4fb+vPXo5QN8gJo2
z1CyWaJfoRcL5SdTmUM8Z7hAT/23L+OECJeG5W03pe45lcc5HwJoowkG7UCraiQb9XFq6FWizECl
KqY2JcdEzG1Zp1TsnfLE76QDRudUHnMJlHkGibn7xHMYme+kTp+SOqFclbndZyVsPbGfc9VOzNe0
I8+SZCo1yNgpt/6Zrwl5aY9sFLXWTjtL/pXTnHXbCvEaxIx+J7nWTguzqfTOnL33szbva2Inf+w0
IJRv9wRHwsxIA7yshLFZMN/cuNolLn6+ubyyQRwZ67frH+u3u16+edrO2jJ9BLN/cuTyQibKEpK4
CQdkLpaaZ5gtbd0sVa1VS4ELXLU09ugvjrRu6V6yWwxfsiOdJtJhS3ZCjJRxWGbtS+sSEoAHO3zd
kigikKVkkwhy3iECYvPlEIGEWxEk2Fz5Ij7vDMnfLXmWbnNx168DSLDuTeyNuj5kXPQUvnTrX712
nWDSqL4sWKxElpxZrBSyAG5euuFvIJGO30T/a3FMHMxsFKb2liaRCDydKBuIA9kRGDkMsE7Lk5AS
z0gqcrnJhlGRuXAciLyEDuNqJT86U9ENPG/x6CeP3wTaYZupQmTbzBGzpBvTF4sxmghpQB8sTaZh
MFmSZeLA4Ahzl4OPEpXscmQTNA6+Bq6EXPQel4ANHmYTz2oEU3mmM5H2YfGxnp9ENkgWyUMHk2Jx
ZQPP7hKM3bkze/s7Fg6FWdx280PBQby7aMKVfwsOxQqzuJHrlYaszCxF8ljYqMDhyzo8NhZh9p45
NoMwmJTaSUOzKTiYuYnEda+7QjEIxWPxh4Fe7UjiangX9DD2c2V+omHsFypCAI/Flfj9zXMxAofe
Rl6wG9iXB9zVGm2R8cC3aKYKw+HtI5tl4ZBIh2NBN9EVYjOVBwfTImPaJjeRxNdy61wgKW2LHKq4
aoXiWFqHJC8hHMXzBcBJdGJfgoCWS9VkiJFfbiFk3qsUnw71WTOih6jUziM+ksS0ka9a2n7cztJ7
d28yxqmLVB6GPgP2tNE249zbr5z4sl9fxq2wOSN9hScwkpSBeQLj1QzJUS5Ya1TwCc87J4sIRgSN
iwgYWSgrWSP3aGTsAVvj61O/YSQlnYAFrbiTDszQ8bB7XYB6UEy/OWcjHtFZQTBCdlbQvTjwsf5O
RcvOAzxokTpm0QiEKzNVZ234hE54gha0c1gndMITVBMmcE7stBOetkgyj4UK5mtORPuYRTuV+itr
7tFHOUDu+JWzff45YIYMnlP6izNzj4UiOmq/eGOBorZ/Sr6azdbuHwTr5Npy1l4CNSJ7cbGwUnco
dskxUkeRiSxfesNOZF3mnfZg9qfRIk9hKORn+2vZq9VeYeNKPtlWn+oZY1fQjrh4f5GyVjUfnPW4
V4e9xMVh/ctOOlKsIpb219GG33BmIvL+wEiOiKXaqXGcM0hlqXUlmr8OH56N8s3dxeqL+Un8wITJ
jWJmHu+3sMV7+PMmdsSXVsXIRYsvw3Oz7dfFW5vb7kVXdvR1tf7bfiRT59U6Y3m9SRVHzvTOU/c3
ezO9Unp4YCeRnvKGnM+LV7J5xOzqg2J+KlXtZOmTZMJdf297sEmkt0+Ll0/lUmumtn1++biw+5bb
IucMr6E2sVZ/B92CkVY1lFn5RfGcFRt+Uiw5G3EKZ8WGnxRL9NgUzooNPynWPBV34g==
	
	s2LDT4olOzamcFas76TY7f+zkViFWT8QhJfddp1e0Eyk0/DLRWMw7CKA8rLT+Gi2K9W/Gr2EkDT+
5eFf/KvqSUHUkqKiwBcFf628JTLFautn2EgKi8lKO8Ent3cT6Zf8dm9QatYGzU672vsruYI/3R5X
rg5KyZWk+cYLvLGazABS/AuAw7NFXEx9AURfsB347/ZP/NBIDOF/pwmeEyWd/CMXJEXRRESKE1Se
/COomiZIOvxSMH4QJU0WNEVLfiV4cxDQ4l/w5RA+/Iaf/kwKfPI4+fDEJ+vY23lCkkVO56FpUVUk
nS8kJQXakzVZ1xRJEZRC8jshSRqnqTx0p6iyKOh+GElSOEXXVV2UNV4uAISscpKqyarO80azfgiJ
g/8U6FvRJVVJ1hJ+GEnnJF5XeF1UVUmWk35MpAIHHciarsoFXgcI33i8ENCPXOB0SdcEHXrUJY3R
CgxQ5HVVVTVJ5CWBgYkPgjEeP4yXKj5MfJSNnJ9a4j0hiSonFARVloSCzBekpCQqHK/KMg/8oCAp
YRZFnSsoqirAy4ifD0SSBK6g6gWNPISIVy/AeOAR+cH1UId5kmECJK2gwizg1FGPJRHehQFKfAGx
Sfp6lmROEHhZEBVdLeAgfeh7IaAHUeYK8A9MvyCoZOp9rYhAGUmVVOAgnQzIh4gXgjESP4yXFD5M
fJSMnA6cNCLoS0NQOqWEICucKOqC3SZMNyfKqiTIsiLBEGEC2TC6JoI48MB0crLCgtGAw3hRVzXk
FikpAEOpQBlBkQymFDWBE0SghMADAPQEtOAUVRR5WdF0DXjdB1FMCBLPKTxIoCoWyE8+mAoDpiBx
sipIAshBAXFBGJkD0osSb9A2FogO866LBfgApDFAVA6mTAAJFolaYMHIAlAG0DGZkNUTEE9VdFEo
SAY9mTACJ8sqRRzoSlXhjYKgiKgZEEbiCrogiubswSSgjlZFXUe9pmlJxjSJHOgBSVBkYDo2hIch
ioSFSsbAdAUUBK+AZhQIJA+QvCga2uybBSNxCgy1oAgSYXxBBl0FKAPRJE0kECJAAOOIhlQjVwDD
CDpvYugFKPpnygPBmEtV5QoC9FcQJOjUmEsNxilDT4UCshITBpAFvIObYYy3wKkFUSxopipgUw1Y
1VTNEo4nkrIVmIOlq4RQ0DiYfaAe0YFIGxkMiga8QaiF6lcoKBzIhqAXRI20jzCg+OF/Ok8YB3QF
WBBZUFWzdezOkR7G4wInKRRXAcYsGBk4D6hkKMkKC0blxEIB8DSVIEEVZEfkVZ6wGkLosoNIAagt
w0hUwxa6H9cMcgCNwFobDXrfB3MAqhAMo2HSCAI6TB2v8YTOwPAc6iatwBs2Doch8oCihrxpaCDg
YJc8qyDyoLwL8JpkKkNoBlQwKHcwuqQjDTRSwUVyHVysAjTNK4SEqMYkYBQNmidiQAZbALdKVpAY
kh8CxytxlIlmwAgFnpM1uh/AVoS5s7FlQIBPosigqE1+wdllwQCHGTMJ7kOFBQNCCDzNK4KqEOIW
wABogqBpOvoROH0Cpwiu+QfGklRaF3j0F44ZBqCploqTiB4EE2OMBycEITQdZELQBWIEEQIUqSNh
DAjQMWBpATeicMmYWTAw0bpkzAgZsw8GGMp0ugjDoQ2UqPnBSZVpbQsvQHuUcfAA1Ij8gl0Hf85g
ZFYjoPYLNhcbaMiaI0mE9LyqCLqhwXEoqg6NSrpIpgaGq4A10YCrRdngUOyFlykYHK4Aw7V8RoKt
TNQPeAICmVEUcUUvGOQwDS/Opq4bDgkZL0wHSAuvmgbTA1Ej0sOrrgF7WwERVBXwaSSBJ16NiIoD
mE+1jYYfQiOmEQIVQ1MaguyDAdfJpfB9MICcW3nCDyoIC1FJhj6QQAnJ4LTzmmgQP0pJo1MGQRW4
bq5J1MHgaxIP/EPIAKpcU9CnMuRJVPwgFT8IYgMAAk/iA0M7eXuKA+PvyuNICjIQD3Qeb7AGaCJR
oaQfsOfBOQXlxEMMYeh/hpcjgDcHqlcHERcCYUCPyDpoGsUgH2F32tUEGBG9CgkY3tTsTBiYStHD
Z96+wH/WQNvYBomFDvonHq/VNfRKJHEqlksFcOBTUvaP58AWgeZSRGLxgIoCGFbNxW8FDqYN5FUg
bGui5B6Zt51KdFemi0HPsY7qTBQ0XZdNfed1vr8TOogDbR397rkXwk9SXQGtDx3xMkyzgBITCwak
t6DCsHX8RUcYiCcUk2EtteeGAG8BTBDlcHhBQOxBb5jhk+HyAZ0gBBZkgwgsCJnTaWRB1fhhwKED
BuUFI1AgqPhgQGXBXNgxusCDnDpGikH+6AmynXceZgF+ERWSNjCUkgY+ZwHdcuz+mwUjgRdNuTqg
MQBF4GuFqDqJGH1RpMYOGIHWE3ScI9Mzdz0vMibSC8OabL9vjj1BUG7GLWwYxBeoC7gavzEceP+Y
wdq6TAuLcrodG0UT1vLdFWAknuZOD4/DBCgy6RsQLBixGEP9+GAYAbG3qxgg/p7c+h7klzMtnMhU
9yBTmJcSeb5gMAujSfCcOFDKwPOm5WHCiJwOroeuqRIvs9U9CDAwJsiOajjqbBiBA7mg4jtGXyLx
fR12ZaGjgf7VrAiAqe4jaGNpewSTaJr7tT34DOjrUS6XX9sjRuAaAcfxRqjFUOWRXZlMKSoSB2On
BMSv4aEf4r44voGfnfwwDEpiPACv8YpihMbxYFQOE862UqwwcI4D48f5PSFKqt9fVz1sLeHcqo6c
eCCgTXAQFUqNY8CiUqreD4EKT6ei+2KCCSOB3S8YzEto44eBSAHc6oLt/CGuCnAPr6PXa8TDEFAC
oGYGpr4ReyFq0A+EzeD2Q+hmJJr8rcjgsQNTGtkKM27nNXCaVcuNk0VP9gpwBSsq2rlZGLMM2IIa
M+JO0TCAKm9nQciYZQgFwJ6oshkQYmQNUYHj1yMuoubhTtlKyBGiqB6ieABqhLKKRMeY3jZEwAy8
T3CijOAIB+xGww/hn2QmDJ1qqzBgCuhF6054jsgWBEv/m84SRKaSMV1ogWDEGq/aboEfAoaMZHOl
4XytIOkt9K3oTwKzaCcBRBmzVHTaCuN5Zz5xioGwMD6HlcDfAs4SdU2SCF9UCCaC2+ip4MbBW6KV
kQSGxOyYKyL2CGGUIGPIBaE8hwsrTtrVnz0D3GHawIGRTV3CUnaa7EnfMmDA68VpVBXRyO6jBgbr
6IyKBcNQiOAKISeGBVF+GBUT4iqdooKJxCUiYC9FCPIJgF05FTxZjbfIyoKJoiEqVjDenAThpGM0
GXlKwBq4jZp3X55Sl4ERKOvsTlP6nvqzlAwQb5LSB+LNUSKa7hyVK8eoFyD0cjIt3gwlEsI9SPfb
JJdF52o9GUrgFk4WXMG7L0MJVs6TfvSnKLGdgizYS0WMFKWue1S2L7mIY1UVKjnCSFECf7gTPv5W
IIaAAQMCopnV9aYo/RD+FCUTxpOi9MN4U5Q6+Jq6E6f7EpQwYkWmJYKRoES6gdSY/MFIUIJLjGlq
QRVN59SXoGRA+BKUbBh3gpIB405QAq5gbOh0nDe3qKPyLVC8xMhQgkgobmfP14oEnCJ7UjauDCVQ
HpC0UWXmKEEX6xAhq5JpLFg5SmgHZk8AR0I3lsB8OUqQcJ81dKcXdUTOZel8SUqUH7eb4YVBKdTB
S9fIV+IqepKUDAhfkpIJ40lS+mG8SUrEFiwYZt9MH9SXpIzU0N6VY7KSp0OvBctBYMSAOEEiOIZm
7pnt4sOswswbGRd2socIou44h8z4DtQGjJ5ei/XDgJIrqGp4vInWXFLd/pQPH3TCRLdl9AaBkfSx
40BQQ7p76cQfCKJvD5ZDNZx7iRkIYjJD9dh9byAY2Ze9tIgCCcEG0QwACNwDxhLCGGvlFvMT8BPQ
XbWcCB9MxQ8DPaGXCMyny9YSubevODCMvrwZCgkYgpc1RTPVBegPSggkEl8DyYARNFkrmHGhBwbT
BgJ4tiSphEILThrPG4EPiQRkMNCyrMsFkzPRgQC7SbkdCAMUllXb7qAKgiZME2hlJ8DzVygSqKgL
VMp+EVQKCpknopYARAJNospmts/IBYCmUwQZl9iQ6XQSVKm2osWMArA4NWLQzaq5k4O0KqDjL1kG
S/YBoPLTOCcDSubU0wavoIG2JxAACpyzYQTx4jF4cMgK8whaGVjbUmtINoVD7aWrvLEC6oOpGDCq
bpFbTxK/1kxHmgEUCo5EJILsAQIAFbewGbkQnGAvAIzf8hHIYBgAMnyyyV7zdyKAFQLEzUYwHARD
rCuyrhQMVwm5Vy/YeGKSC57Kuq6YW3vcz5HmSFLQ6IqZ3vRAELcDmEe1UtmgLDg7Aifroj4IHreL
aBBOK8auMNN5oWEwllCcDJRGphYUDSgec0eRX2Ii5a5mJ8BIVsDMWxGcJVwbUMEzNXJ0hoQqKsXR
PhjQ9ZiRlw2BIxOkcwWJEi+SHnQxmwL+CWhQQTRSimhnvfzoAakYMyCbtCLIQgRn7Bg0rLmGKTZF
tDfd+RGNGm7N1L0kOIN/jZyxZlBQo/ZOfZPlAjA/YF1NdHwwAo/rB4bC1WRnUVYAvFVqaxaRXte+
CHC1/DC8O7bHFSSya1JX7Ux3DBhTa4O7IRp6ruLvKxYM0QWUX8qAQf0IHrAVi+H6o+pkMDQybt1N
MQmX2im6eyFqCRAQXrLNkKr4YUDVySCn5pAJRAEQE0WJKFxcpvFC4GhA9h3/uJjww/ipAqaogJty
bTMZCwbXQACPMBgcE6ZlJJJyBxjQAuA2UZvufLwWxbFkjRvTMtTSmFeHfZN9WjJve02yT8tJ4AiC
EwXibqzPgbMN6gFas/dXiajBQGwNN9vQF2h5zAEjbRkwhG62/cKFXzTjGq8rtjqNBDH4nzL9FX9P
cWAM3QOaWy4UVCOFwsCY52yPgmh3CZSLWrDZEoct04TDWF2kSe96XiObzsDJEiwL5n5dRk3lrGBj
9+CJqAVTXfqewxDAq3JMSzHhBWFRQga/QnPSUrFgJB5cC2DNUBgYDYTxFnlwl6OMXqm520XyW9MI
TiXcDIECRHNuqdCgQV7XDQWDSS1gT4naVsPSbSB+YFGd/SEsGE0Ek6Y5KQRoF/Sss9MNt2xAwCZT
mUpWMyTAtHYdB3WFa6SyGT+zhlWJMXRrOQUIIAuC6a+hSwIK2smufbNgCEYwVpPyxkIH/CBZPncM
ENMUyVSi0ttRDBBUy7iLu2BGXWwYDd1FmBTZXHpEOQJHQBUcXxC8LKlgJPChYxnMEsykia3kh8BE
uYphmqTppmfgg6mwYHBdRpbMzYsWjEINkoAUwBIpqrWNh+T1wU+zghqA0dyjxny7AsxrJLRIKwq6
lsBmVgwROdO47wDJqRRUawEWd6eDkRMh5rHaAX5AW8ljwtEoFQCdAYwpFmRjy2DFC2Dyr7WRxcqi
g2I0t/9qMWHAZ4XA3F7h8XcUAYDOBjw2Y28jXvMAgILmecd0ieBKKCKAO7tEdQzpeQ==
	
	TTJzSkBAkHqFtx1GH0QtgeoP9b4Trvlb0TAYA7ILgh3j6oou8AXZcgnAYQY/yS5DQdlwEgkSBrEI
A8qU6gfdSt2ccUIQBgjGChpNeYQRdKwZks3sGwaoBd5BF2GAScFpdAgDMJJE9YWDBuuoU0GsjCuQ
9KAVzOMD+1lM7IWokTUQY93JmB9fEx52FUnqH4wwbwVxfgggtYhJWMnyNfxM7+ckJAp8CWVHBoyP
rRl9xYDxCqE3j4JFJcAnwEYCM3b9ToD9wASkpfR81lTC3QcQSIH5MdIBvtjUD+GPTX0wvthUwigb
pk6yRcwbeeJYQE9hxkaypcUTm2L1DjQrGasali/ragXLtuzqAk9GCCu2UO2pThjiywghDIRIhEk0
k/c8CSHsQ1Kp3V+MhBDBo+DsDfHngyQJFKjNjxojH4QFVPDAWTXw5nKAJ6ATe4srKx+EahrMDpXZ
9raBDKLAjIvW/hxvPgghqIUJRjpIIrUXqrX6yEwHERhoxCnTI+kg8JOt7L8B41gykg3ioZmCWTDl
fupJBfmeevJA7ufeJBCWGQogwBqvFlhJnihBs9ImPlp5UhWmQBosbnnrVKYCpwtmX7KcCX8eAjGR
6CUrRqYCxQRkz2EtfysQzIFUmEVwIiMxgxQJG0kxcqzWviVczwChV+zUN8iCTvuZfgBU1cApmrMm
6oXBGZaAP0VnQR4sk6Rbc2JYaF1VzeQ5SiluipCwRpY3Vk3RVPEwcFm2w0+Ewd1Jds6YwECPgmRK
A66K8B51D0YRmN1OIyRh6sDaKk6AimYeXAVBMRP5PgASMkpG9YWZyPWBgLgUBN0uFxSxLECkvAsS
SQn0js4CrqGC52CEL7ofokYGrDuiwGxFxd2bTgoP93hLoNrsra4qeOumaTaTm+h/2jMDVMUNFa6A
HfwTVXVqwHDpQ5UlADAXo9CgFKzNKcZzydwJYBotDYMkym0soCOs0+MADw84BuTeWEbDNT5okKey
lcThtsyYROhVAKtXsGpGfBDGtPBen51qQkE+pfwjRFUpWIU1yIU+CHTNJBm9KiMOLSaYMLa9MSjm
B8H0DGBeMK2yqGhYPmjnIYlC1akKSDJeD7PjtnuwEFaBIfIHppc0ZykHc1SOGjc3d8s6UM2q9UXn
WdMtOy4xIdAhp3gZ+/HBEP1jqShj5Ro4jvaE0ZI5IOZqoG5zqg+gRmRXkVzLWd5GcFGsUNDtZQvD
LINLLZrJYxG39fIybyWbcTQuFYETCGqElk1i/2V7gCRnrQhg36Aje1kXUYH3NdmsJ0cYkTNqK83h
KB61qCgcLnPbKo04PMCQol3IB1oCwllHB5AYBJwcydkEifv28LgA3dq67oGoEekCneCOU9yt+JU4
FqnL1n5MiQVB2wGMQkUNmU2xAhDbSaYXNnGd2Iyq2auabgDGcqWvlzgwzCXNq4SezCwmb28SlR3j
3Ijddp2cGpHLJdLps+pH47JXbbYavcRHv/pHI1lttzuD6qDRhSfJj16jP+j0Gsn+Z+dP/OX/G1AL
TLmqqqu/Gy8ASEwTkQ==
	]]></i:pgf><g
     id="g4599"><g
       id="g4578"><path
         inkscape:connector-curvature="0"
         id="path22"
         style="fill:#231f20;fill-opacity:1;fill-rule:nonzero;stroke:none"
         d="m 9.8418526,61.837027 0,6.714447 3.0699604,0 c 2.301938,0 3.644912,-1.227728 3.644912,-3.414846 0,-2.033599 -1.342974,-3.299601 -3.644912,-3.299601 l -3.0699604,0 z m -5.4481476,-4.643001 8.211069,0 c 5.909003,0 9.553916,3.031261 9.553916,8.019149 0,3.223054 -1.573041,5.640238 -4.297689,6.944939 l 8.441433,11.894553 -6.522655,0 -7.136731,-10.858617 -2.8011954,0 0,10.858617 -5.4481476,0 0,-26.858641" /><path
         inkscape:connector-curvature="0"
         id="path24"
         style="fill:#231f20;fill-opacity:1;fill-rule:nonzero;stroke:none"
         d="m 34.974784,54.892088 4.335537,-5.180105 5.601964,0 -4.988313,5.180105 -4.949188,0 z m -5.295352,2.301938 15.654712,0 0,4.643001 -10.206266,0 0,6.215616 8.671924,0 0,4.642576 -8.671924,0 0,6.714447 10.206266,0 0,4.643001 -15.654712,0 0,-26.858641" /><path
         inkscape:connector-curvature="0"
         id="path26"
         style="fill:#231f20;fill-opacity:1;fill-rule:nonzero;stroke:none"
         d="m 57.114302,61.837027 0,6.714447 3.644913,0 c 2.302363,0 3.684037,-1.227728 3.684037,-3.414846 0,-2.033599 -1.381674,-3.299601 -3.684037,-3.299601 l -3.644913,0 z m -5.448445,-4.643001 8.863291,0 c 5.909003,0 9.515643,3.031261 9.515643,8.019149 0,4.949614 -3.60664,7.980875 -9.515643,7.980875 l -3.414846,0 0,10.858617 -5.448445,0 0,-26.858641" /><path
         inkscape:connector-curvature="0"
         id="path28"
         style="fill:#231f20;fill-opacity:1;fill-rule:nonzero;stroke:none"
         d="m 90.381202,57.194026 5.44802,0 0,16.345336 c 0,7.060185 -4.143744,11.280901 -10.896891,11.280901 -6.714447,0 -10.858191,-4.220716 -10.858191,-11.280901 l 0,-16.345336 5.448445,0 0,16.805894 c 0,3.606639 2.033599,5.71721 5.448445,5.71721 3.3383,0 5.410172,-2.110571 5.410172,-5.71721 l 0,-16.805894" /><path
         inkscape:connector-curvature="0"
         id="path30"
         style="fill:#231f20;fill-opacity:1;fill-rule:nonzero;stroke:none"
         d="m 108.03166,72.38818 0,7.021486 3.06911,0 c 2.53243,0 4.06762,-1.342549 4.06762,-3.56794 0,-2.225392 -1.53519,-3.453546 -4.06762,-3.453546 l -3.06911,0 z m 0,-10.551153 0,5.870304 2.30194,0 c 2.07187,0 3.26175,-1.035936 3.26175,-2.954289 0,-1.803532 -1.18988,-2.916015 -3.26175,-2.916015 l -2.30194,0 z m -5.44887,-4.643001 7.63556,0 c 5.60197,0 8.97854,2.762496 8.97854,7.290251 0,2.148845 -0.99766,4.028924 -2.83904,5.294926 2.83904,1.266003 4.41251,3.568366 4.41251,6.369136 0,4.91134 -3.79886,7.904328 -9.9762,7.904328 l -8.21137,0 0,-26.858641" /><path
         inkscape:connector-curvature="0"
         id="path32"
         style="fill:#231f20;fill-opacity:1;fill-rule:nonzero;stroke:none"
         d="m 126.3349,57.194026 5.44802,0 0,21.909027 10.20626,0 0,4.949614 -15.65428,0 0,-26.858641" /><path
         inkscape:connector-curvature="0"
         id="path34"
         style="fill:#231f20;fill-opacity:1;fill-rule:nonzero;stroke:none"
         d="m 146.78613,84.052667 5.44849,0 0,-26.858726 -5.44849,0 0,26.858726 z" /><path
         inkscape:connector-curvature="0"
         id="path36"
         style="fill:#231f20;fill-opacity:1;fill-rule:nonzero;stroke:none"
         d="m 180.35964,70.623347 c 0,-5.141407 -3.60706,-9.093359 -8.63322,-9.093359 -5.06486,0 -8.6715,3.951952 -8.6715,9.093359 0,5.141406 3.60664,9.093783 8.6715,9.093783 5.02616,0 8.63322,-3.952377 8.63322,-9.093783 z m 7.55859,15.309399 c 0.57581,0 1.34255,-0.07655 1.91836,-0.307038 l 0,4.604302 c -0.88242,0.345312 -1.65002,0.498831 -2.83947,0.498831 -2.99256,0 -5.75506,-1.227729 -8.40274,-3.530093 l -3.18478,-2.839043 c -1.15075,0.306614 -2.37891,0.460558 -3.68318,0.460558 -8.47971,0 -14.27347,-6.52308 -14.27347,-14.196916 0,-7.673837 5.79376,-14.196492 14.27347,-14.196492 8.44143,0 14.23519,6.522655 14.23519,14.196492 0,4.489056 -1.99575,8.594952 -5.29535,11.203929 l 1.61131,1.534767 c 2.0723,1.880079 3.9141,2.570703 5.64066,2.570703" /><path
         inkscape:connector-curvature="0"
         id="path38"
         style="fill:#231f20;fill-opacity:1;fill-rule:nonzero;stroke:none"
         d="m 207.02734,57.194026 5.44802,0 0,16.345336 c 0,7.060185 -4.14374,11.280901 -10.89689,11.280901 -6.71445,0 -10.85819,-4.220716 -10.85819,-11.280901 l 0,-16.345336 5.44844,0 0,16.805894 c 0,3.606639 2.0336,5.71721 5.44845,5.71721 3.3383,0 5.41017,-2.110571 5.41017,-5.71721 l 0,-16.805894" /><path
         inkscape:connector-curvature="0"
         id="path40"
         style="fill:#231f20;fill-opacity:1;fill-rule:nonzero;stroke:none"
         d="m 219.22893,57.194026 15.65514,0 0,4.643001 -10.20627,0 0,6.215616 8.67108,0 0,4.642576 -8.67108,0 0,6.714447 10.20627,0 0,4.643001 -15.65514,0 0,-26.858641" /><path
         inkscape:connector-curvature="0"
         id="path42"
         style="fill:#231f20;fill-opacity:1;fill-rule:nonzero;stroke:none"
         d="m 4.393705,95.92298 15.654414,0 0,4.64258 -10.2062664,0 0,6.21604 8.6719244,0 0,4.643 -8.6719244,0 0,11.35702 -5.4481476,0 0,-26.85864" /><path
         inkscape:connector-curvature="0"
         id="path44"
         style="fill:#231f20;fill-opacity:1;fill-rule:nonzero;stroke:none"
         d="m 30.293509,100.56556 0,6.71487 3.06996,0 c 2.301939,0 3.644913,-1.22816 3.644913,-3.41485 0,-2.0336 -1.342974,-3.30002 -3.644913,-3.30002 l -3.06996,0 z m -5.448445,-4.64258 8.211367,0 c 5.908578,0 9.553916,3.031261 9.553916,8.01915 0,3.22305 -1.573041,5.64024 -4.297689,6.94494 l 8.441433,11.89455 -6.522655,0 -7.136732,-10.85862 -2.801195,0 0,10.85862 -5.448445,0 0,-26.85864" /><path
         inkscape:connector-curvature="0"
         id="path46"
         style="fill:#231f20;fill-opacity:1;fill-rule:nonzero;stroke:none"
         d="m 65.325243,111.15541 -3.683186,-10.09102 -3.683612,10.09102 7.366798,0 z m -7.251552,-15.23243 7.136306,0 10.167993,26.85864 -5.793757,0 -2.570278,-6.98321 -10.743796,0 -2.570704,6.98321 -5.793757,0 10.167993,-26.85864" /><path
         inkscape:connector-curvature="0"
         id="path48"
         style="fill:#231f20;fill-opacity:1;fill-rule:nonzero;stroke:none"
         d="m 79.522585,95.92298 6.983212,0 12.009799,19.2235 0,-19.2235 5.448014,0 0,26.85864 -6.983206,0 -12.009374,-19.30005 0,19.30005 -5.448445,0 0,-26.85864" /><path
         inkscape:connector-curvature="0"
         id="path50"
         style="fill:#231f20;fill-opacity:1;fill-rule:nonzero;stroke:none"
         d="m 130.47779,114.76247 4.29726,3.2996 c -2.07187,2.83947 -5.29492,4.83437 -9.2086,5.33363 l -3.3383,5.56326 -4.83437,0 3.377,-5.64066 c -6.98364,-1.2273 -11.58751,-7.13631 -11.58751,-13.966 0,-7.67384 5.79375,-14.196916 14.27304,-14.196916 4.87264,0 8.86329,2.187117 11.31874,5.448446 l -4.29726,3.3383 c -1.53477,-2.18712 -3.95195,-3.68361 -7.02148,-3.68361 -5.06486,0 -8.6715,3.95237 -8.6715,9.09378 0,5.14098 3.60664,9.09336 8.6715,9.09336 3.06953,0 5.48671,-1.49607 7.02148,-3.68319" /><path
         inkscape:connector-curvature="0"
         id="path52"
         style="fill:#231f20;fill-opacity:1;fill-rule:nonzero;stroke:none"
         d="m 153.34706,111.15541 -3.68319,-10.09102 -3.68361,10.09102 7.3668,0 z m -7.25155,-15.23243 7.13673,0 10.16799,26.85864 -5.79376,0 -2.5707,-6.98321 -10.7438,0 -2.5707,6.98321 -5.79376,0 10.168,-26.85864" /><path
         inkscape:connector-curvature="0"
         id="path54"
         style="fill:#231f20;fill-opacity:1;fill-rule:nonzero;stroke:none"
         d="m 167.5444,122.78162 5.44832,0 0,-26.858555 -5.44832,0 0,26.858555 z" /><path
         inkscape:connector-curvature="0"
         id="path56"
         style="fill:#231f20;fill-opacity:1;fill-rule:nonzero;stroke:none"
         d="m 182.04835,115.4144 c 1.61132,2.07229 3.76016,3.30002 5.94728,3.30002 2.14885,0 3.45312,-1.15118 3.45312,-3.1078 0,-4.79652 -12.27814,-3.72189 -12.27814,-12.66215 0,-4.258994 3.49182,-7.789086 8.59495,-7.789086 4.0285,0 7.13631,1.803532 9.4004,4.527755 l -3.99065,3.568361 c -1.57304,-2.03359 -3.33787,-3.338295 -5.37147,-3.338295 -1.88008,0 -3.10781,1.228155 -3.10781,2.801195 0,4.79652 12.27814,3.68319 12.27814,12.77697 -0.077,4.98831 -3.99065,8.05742 -8.90199,8.05742 -4.52733,0 -7.59687,-1.65001 -9.9762,-4.48905 l 3.95237,-3.64534" /><path
         inkscape:connector-curvature="0"
         id="path58"
         style="fill:#231f20;fill-opacity:1;fill-rule:nonzero;stroke:none"
         d="m 202.6918,95.92298 15.65472,0 0,4.64258 -10.20627,0 0,6.21604 8.6715,0 0,4.643 -8.6715,0 0,6.71445 10.20627,0 0,4.64257 -15.65472,0 0,-26.85864" /></g><g
       transform="translate(2.1000339,0.19999)"
       id="g4450"><path
         inkscape:connector-curvature="0"
         id="path60"
         style="fill:#231f20;fill-opacity:1;fill-rule:nonzero;stroke:none"
         d="M 10.036102,205.60616 10.232998,204.996 C 7.61373,204.50312 7.279007,204.50312 8.3228954,201.64792 l 1.0634079,-2.9343 2.8947527,0 c 1.299598,0 1.31916,0.53187 1.122264,1.94969 l 0.748459,0 1.732939,-4.74583 -0.748459,0 c -0.649799,1.12269 -1.161814,1.9494 -2.579634,1.9494 l -2.8556285,0 1.5164815,-4.15523 c 0.47289,-1.31916 0.748459,-1.59515 2.520947,-1.59515 l 1.260049,0 c 1.8316,0 2.048058,0.49288 2.048058,2.34361 l 0.728472,0 0.610675,-3.22986 -10.8704395,0 -0.1968533,0.61068 c 2.1070412,0.43334 2.303937,0.63024 1.3194576,3.34808 l -2.3630058,6.45891 c -0.9847346,2.69773 -1.3983861,2.91469 -3.8205458,3.34808 l -0.1770787,0.61016 7.7588885,0 z m 15.084012,-7.91619 c 0.374229,-1.28046 0.177333,-2.40273 -0.807146,-2.40273 -1.162239,0 -1.45737,0.88582 -2.638745,3.42638 l 0,-1.45742 c 0,-1.04359 -0.335106,-1.96896 -1.280036,-1.96896 -1.103127,0 -2.107169,1.71338 -2.87519,3.40677 l 0.512014,0 c 0.531576,-0.76759 1.024029,-1.22092 1.41782,-1.22092 0.472466,0 0.728473,0.72889 0,2.34353 l -2.12673,4.72605 C 16.928309,205.42891 17.341663,206 18.20792,206 c 0.532001,0 0.768446,-0.13787 0.984904,-0.70896 l 2.087607,-5.53341 c 0.590688,-0.7289 1.122264,-1.35875 1.791625,-2.06766 l 2.048058,0 z m 9.570501,-2.85563 -0.827133,-0.0591 -0.925368,0.90581 -0.196896,0 c -4.489907,0 -8.369564,5.04142 -8.369564,8.70416 0,1.02411 0.630237,1.6148 1.614716,1.6148 1.161814,0 2.304065,-1.65435 3.584101,-3.42684 l -0.05911,0.63075 C 29.354013,205.01509 29.905151,206 30.850507,206 c 1.102702,0 2.107169,-1.713 2.87519,-3.40673 l -0.512014,0 c -0.531577,0.76798 -1.024029,1.2208 -1.417821,1.2208 -0.413779,0 -0.70891,-0.74837 0,-2.34357 l 2.894753,-6.63616 z m -8.290466,8.09349 c 0,-2.42216 2.697857,-5.71032 4.213913,-5.71032 0.33468,0 0.650224,0.0387 0.925793,0.11779 l -1.575592,4.19431 c -0.905806,1.10321 -2.304065,2.44193 -2.953864,2.44193 -0.37423,0 -0.61025,-0.31511 -0.61025,-1.04371 m 9.944306,-6.1241 1.811612,0 -2.87519,7.85704 C 35.02487,205.33055 35.379538,206 36.068886,206 c 1.634278,0 4.273023,-1.6148 5.198817,-3.82051 l -0.512015,0 c -0.728472,0.76794 -2.12673,1.79205 -3.328093,2.00885 l 2.638745,-7.38461 2.697857,0 0.33468,-1.12269 -2.619183,0 1.004467,-2.83564 -1.043591,0 -1.870724,2.83564 -2.225391,0.31512 0,0.80757 z m 12.85947,5.3952 -0.669786,0 c -0.846695,1.00498 -1.752501,1.79205 -2.658732,1.79205 -0.925368,0 -1.397833,-0.55101 -1.397833,-1.79205 0,-0.51151 0.05911,-1.02348 0.157346,-1.49607 l 5.454824,-1.79192 c 1.063578,-2.52099 -0.216458,-3.6237 -1.712951,-3.6237 -2.58006,0 -5.514361,4.31258 -5.514361,8.09391 0,1.6931 0.807571,2.61885 2.068045,2.61885 1.476931,0 3.012974,-1.43739 4.273448,-3.80107 m -1.871148,-5.45432 c 0.728897,0 1.359134,0.55114 1.024028,1.9494 l -3.386779,0.78805 c 0.590688,-1.57563 1.575167,-2.73745 2.362751,-2.73745 m 12.091448,0.94536 c 0.37423,-1.28046 0.177334,-2.40273 -0.80757,-2.40273 -1.161814,0 -1.456945,0.88582 -2.638746,3.42638 l 0,-1.45742 c 0,-1.04359 -0.33468,-1.96896 -1.280035,-1.96896 -1.102702,0 -2.107169,1.71338 -2.875191,3.40677 l 0.512015,0 c 0.531576,-0.76759 1.024028,-1.22092 1.41782,-1.22092 0.47289,0 0.728898,0.72889 0,2.34353 l -2.126731,4.72605 C 51.231996,205.42891 51.645775,206 52.512031,206 c 0.531577,0 0.768022,-0.13787 0.98448,-0.70896 l 2.087607,-5.53341 c 0.590687,-0.7289 1.122689,-1.35875 1.79205,-2.06766 l 2.048057,0 z m 0.03912,6.8527 C 59.069558,205.42891 59.482911,206 60.349594,206 c 0.531576,0 0.768021,-0.13787 0.984479,-0.70896 l 2.087607,-5.53341 c 0.964917,-1.18184 2.953863,-2.44189 3.741447,-2.44189 0.571126,0 0.492452,0.47247 0.118222,1.18138 l -3.20987,6.16365 C 63.75636,205.27161 64.169714,206 64.859062,206 c 1.575593,0 3.446316,-1.41778 4.19435,-3.40673 l -0.512014,0 c -0.512014,0.72843 -1.378271,1.53558 -2.185842,1.67379 l 2.756968,-5.57305 c 0.354668,-0.70891 0.532001,-1.37827 0.532001,-1.91027 0,-0.90581 -0.512439,-1.4965 -1.457369,-1.4965 -1.359135,0 -2.737406,1.53605 -4.371684,3.42638 l 0,-1.45742 c 0,-1.04359 -0.335106,-1.96896 -1.280036,-1.96896 -0.590688,0 -1.161814,0.51202 -1.693815,1.24049 l 0,0.1969 c 1.024454,-0.0587 1.476931,1.47735 0.748459,3.09199 l -2.126731,4.72605 z m 17.348527,-12.05194 c 0.709336,0 1.300023,-0.57113 1.300023,-1.29917 0,-0.70891 -0.590687,-1.30003 -1.300023,-1.30003 -0.728472,0 -1.299598,0.59112 -1.299598,1.30003 0,0.72804 0.571126,1.29917 1.299598,1.29917 m -0.551138,3.93877 c 0.216458,-0.7289 -0.27557,-1.14226 -0.649799,-1.14226 -1.575593,0 -3.446316,1.41783 -4.194351,3.40677 l 0.512015,0 c 0.512014,-0.7289 1.378271,-1.53604 2.185842,-1.67383 l -3.012975,7.83761 C 70.825475,205.58622 71.377039,206 71.751269,206 c 1.496494,0 3.248995,-1.43739 3.997454,-3.40673 l -0.512014,0 c -0.512014,0.72843 -1.378271,1.53558 -2.185842,1.67379 l 3.209871,-7.83756 z m 2.441849,0.37423 1.811612,0 -2.87519,7.85704 C 77.383002,205.33055 77.737669,206 78.426592,206 c 1.634704,0 4.273449,-1.6148 5.198817,-3.82051 l -0.512014,0 c -0.728472,0.76794 -2.126731,1.79205 -3.327668,2.00885 l 2.638745,-7.38461 2.697856,0 0.334681,-1.12269 -2.619183,0 1.004467,-2.83564 -1.043591,0 -1.871149,2.83564 -2.224966,0.31512 0,0.80757 z m 11.775905,-2.52095 3.840108,-3.5841 0,-0.41336 -2.068045,0 -2.362751,3.99746 0.590688,0 z m 1.08314,7.91615 -0.669786,0 c -0.846695,1.00498 -1.752501,1.79205 -2.658733,1.79205 -0.925368,0 -1.397833,-0.55101 -1.397833,-1.79205 0,-0.51151 0.05911,-1.02348 0.157347,-1.49607 l 5.454824,-1.79192 c 1.063578,-2.52099 -0.216458,-3.6237 -1.712952,-3.6237 -2.580059,0 -5.514361,4.31258 -5.514361,8.09391 0,1.6931 0.807571,2.61885 2.068045,2.61885 1.476932,0 3.012975,-1.43739 4.273449,-3.80107 m -1.871149,-5.45432 c 0.728898,0 1.359135,0.55114 1.024029,1.9494 l -3.38678,0.78805 c 0.590688,-1.57563 1.575168,-2.73745 2.362751,-2.73745" /><path
         inkscape:connector-curvature="0"
         id="path62"
         style="fill:#231f20;fill-opacity:1;fill-rule:nonzero;stroke:none"
         d="m 13.935321,165.64995 3.839683,-2.63875 0,-0.41378 -2.323627,0 -2.126731,3.05253 0.610675,0 z m -1.575592,8.25091 c 1.299598,0 1.31916,0.53201 1.122689,1.94983 l 0.748035,0 1.732939,-4.74592 -0.74846,0 c -0.649799,1.12269 -1.161813,1.9494 -2.579634,1.9494 l -2.8552029,0 1.4373829,-3.95791 c 0.47289,-1.31958 0.748459,-1.57559 2.520947,-1.57559 l 1.260049,0 c 1.8316,0 2.048058,0.49245 2.048058,2.32363 l 0.728472,0 0.610675,-3.22901 -10.8704395,0 -0.1968533,0.61025 c 2.1070412,0.43334 2.303937,0.63024 1.3194576,3.34766 l -2.3630058,6.45929 c -0.9847346,2.69743 -1.3983861,2.91431 -3.8205458,3.34765 l -0.1770787,0.61025 12.0910235,0 2.16628,-3.42633 -0.827133,0 c -1.378271,1.2996 -3.11121,2.54009 -5.533497,2.54009 -3.2098284,0 -2.9146121,-0.13779 -1.8509916,-3.07166 l 1.1420812,-3.13163 2.8947524,0 z m 13.765276,8.42868 c 0,-1.26005 -1.122689,-1.71338 -2.954288,-2.26452 -1.575167,-0.47289 -2.284078,-0.61067 -2.284078,-1.12269 0,-0.41335 0.334681,-0.9058 1.004467,-1.26004 2.579634,-0.13779 4.253461,-2.46184 4.253461,-4.41124 0,-0.41378 -0.0791,-0.76802 -0.216883,-1.08314 l 2.185842,0 0.335106,-1.12269 -3.465878,0 c -0.413779,-0.25558 -0.905806,-0.39336 -1.398258,-0.39336 -2.737406,0 -4.509894,2.4023 -4.509894,4.35169 0,1.47736 0.945355,2.4023 2.087606,2.61919 -1.280035,0.57112 -1.988946,1.24048 -1.988946,2.02849 0,0.45248 0.157772,0.7676 0.531577,1.06315 -2.953439,0.86669 -4.115677,1.85117 -4.115677,3.249 0,1.35913 1.79205,1.92983 3.919206,1.92983 3.603663,0 6.616637,-1.94897 6.616637,-3.58367 m -4.273448,-5.39571 c -0.649799,0 -0.905806,-0.55157 -0.905806,-1.18138 0,-1.75293 0.945355,-4.33256 2.422287,-4.33256 0.649799,0 0.905806,0.55114 0.905806,1.1818 0,1.7525 -0.945356,4.33214 -2.422287,4.33214 m -4.076553,6.36063 c 0,-1.04359 1.004467,-1.69339 2.442274,-2.26452 0.472465,0.23645 1.181376,0.49203 2.126306,0.80757 1.496919,0.49203 2.068045,0.68935 2.068045,1.14183 0,0.96534 -1.634279,1.69339 -3.85967,1.69339 -1.870724,0 -2.776955,-0.39337 -2.776955,-1.37827 m 20.046808,-13.07593 -0.827133,-0.0587 -0.925368,0.90538 -0.196896,0 c -4.489907,0 -8.369564,5.04147 -8.369564,8.70425 0,1.02403 0.630237,1.61471 1.615142,1.61471 1.161813,0 2.304065,-1.65426 3.583675,-3.42675 l -0.05869,0.63066 c -0.157772,1.81161 0.393792,2.79609 1.338722,2.79609 1.102702,0 2.107169,-1.71295 2.875191,-3.40676 l -0.512015,0 c -0.531576,0.76802 -1.024028,1.22092 -1.41782,1.22092 -0.413354,0 -0.708911,-0.74803 0,-2.34319 l 2.894752,-6.63662 z m -8.290465,8.09357 c 0,-2.42186 2.697856,-5.71041 4.214337,-5.71041 0.334681,0 0.649799,0.0396 0.925369,0.1178 l -1.575168,4.19435 c -0.906231,1.10313 -2.304064,2.44227 -2.954288,2.44227 -0.373805,0 -0.61025,-0.31554 -0.61025,-1.04401 m 10.436758,1.33914 5.494373,-14.39508 -0.177334,-0.21646 -3.446316,0.39337 0,0.41377 0.669787,0.51202 c 0.610675,0.47246 0.413353,0.92579 -0.137785,2.38316 l -4.293011,11.30344 c -0.315118,0.61025 0.09824,1.33872 0.787584,1.33872 1.575592,0 3.24942,-1.41782 3.997454,-3.40676 l -0.512014,0 c -0.512015,0.72847 -1.575167,1.53647 -2.382738,1.67382 m 10.476732,-11.77633 c 0.708911,0 1.299598,-0.5707 1.299598,-1.29917 0,-0.70891 -0.590687,-1.30002 -1.299598,-1.30002 -0.728897,0 -1.300023,0.59111 -1.300023,1.30002 0,0.72847 0.571126,1.29917 1.300023,1.29917 m -0.551563,3.93877 c 0.216458,-0.72889 -0.27557,-1.14182 -0.649799,-1.14182 -1.575593,0 -3.446316,1.41782 -4.194776,3.40634 l 0.512015,0 c 0.512014,-0.72805 1.378696,-1.53604 2.185842,-1.6734 l -3.012975,7.83756 c -0.275569,0.72804 0.275994,1.14182 0.650224,1.14182 1.496494,0 3.248995,-1.43738 3.997454,-3.40676 l -0.512014,0 c -0.512014,0.72847 -1.378697,1.53647 -2.185842,1.67382 l 3.209871,-7.83756 z m 2.441424,0.37423 1.812037,0 -2.87519,7.85755 c -0.256007,0.66936 0.09823,1.33872 0.787583,1.33872 1.634704,0 4.273449,-1.61471 5.198817,-3.82012 l -0.512014,0 c -0.728472,0.7676 -2.126731,1.79205 -3.328093,2.00851 l 2.638745,-7.38466 2.698281,0 0.334681,-1.12269 -2.619183,0 1.004041,-2.83564 -1.04359,0 -1.870724,2.83564 -2.225391,0.31555 0,0.80714 z m 11.775905,-2.52095 3.840107,-3.58367 0,-0.41378 -2.067619,0 -2.363176,3.99745 0.590688,0 z m 1.08314,7.91709 -0.669361,0 c -0.846695,1.00404 -1.752926,1.79163 -2.658307,1.79163 -0.925794,0 -1.398684,-0.55114 -1.398684,-1.79163 0,-0.51244 0.05954,-1.02445 0.157772,-1.49692 l 5.454824,-1.79205 c 1.063578,-2.52095 -0.216883,-3.62322 -1.713377,-3.62322 -2.579634,0 -5.51351,4.31214 -5.51351,8.09357 0,1.69339 0.807145,2.61875 2.067194,2.61875 1.477357,0 3.012975,-1.43738 4.273449,-3.80013 m -1.870724,-5.45525 c 0.728472,0 1.358709,0.55114 1.024029,1.9494 l -3.387205,0.78801 c 0.590688,-1.5756 1.575593,-2.73741 2.363176,-2.73741" /><path
         inkscape:connector-curvature="0"
         id="path64"
         style="fill:#231f20;fill-opacity:1;fill-rule:nonzero;stroke:none"
         d="m 14.644232,141.99948 -7.1682015,0 -0.1970235,0.61025 c 2.1072963,0.43334 2.3041922,0.63023 1.31933,3.34765 l -2.323499,6.45929 c -0.9847346,2.69786 -1.3983861,2.91432 -3.8205458,3.34766 l -0.1770787,0.61067 10.9096485,0 2.363176,-4.21476 -0.827133,0 c -1.339147,1.47736 -2.914314,3.32852 -5.3366017,3.32852 -1.8315145,0 -2.0481425,-0.31554 -1.0634079,-3.07209 l 2.3234566,-6.45929 c 0.964917,-2.69785 1.398258,-2.91431 3.820546,-3.34765 l 0.177334,-0.61025 z m 7.935797,1.26005 c 0.70891,0 1.299598,-0.57113 1.299598,-1.2996 0,-0.70891 -0.590688,-1.30002 -1.299598,-1.30002 -0.728898,0 -1.299598,0.59111 -1.299598,1.30002 0,0.72847 0.5707,1.2996 1.299598,1.2996 m -0.551564,3.93834 c 0.216883,-0.72805 -0.275569,-1.14183 -0.649799,-1.14183 -1.575592,0 -3.446316,1.41782 -4.19435,3.40677 l 0.512014,0 c 0.51159,-0.72847 1.378272,-1.53604 2.185417,-1.67383 l -3.012975,7.83756 c -0.275144,0.7289 0.275995,1.14183 0.650225,1.14183 1.496493,0 3.248994,-1.43738 3.997454,-3.40634 l -0.512014,0 c -0.512015,0.72805 -1.378272,1.53604 -2.185842,1.67383 l 3.20987,-7.83799 z m 10.712753,1.04402 c 0,-1.59516 -0.591113,-2.18585 -1.693815,-2.18585 -1.378272,0 -2.678295,1.45737 -3.977893,3.22944 l 3.288544,-8.64471 -0.176908,-0.21688 -3.446316,0.39379 0,0.41335 0.669361,0.51202 c 0.610675,0.47289 0.413779,0.96534 -0.137785,2.38316 l -3.544551,9.13716 c -0.256007,0.66936 -0.571126,1.45737 -0.571126,1.67383 0,0.94535 1.280036,1.83117 2.44185,1.83117 2.678294,0 7.148639,-4.82416 7.148639,-8.52648 m -6.203284,6.93133 c -0.532002,0 -1.299598,-0.49203 -1.299598,-0.92495 0,-0.13821 0.23602,-0.74846 0.531576,-1.51648 l 0.886245,-2.34361 c 0.94493,-1.12227 2.382738,-2.32363 3.190308,-2.32363 0.492027,0 0.866257,0.31512 0.866257,1.04402 0,2.14586 -2.008508,6.06465 -4.174788,6.06465 m 13.37106,-2.20498 -0.669787,0 c -0.846695,1.00404 -1.752501,1.79205 -2.658307,1.79205 -0.925793,0 -1.398258,-0.55157 -1.398258,-1.79205 0,-0.51202 0.05911,-1.02403 0.157772,-1.49692 l 5.454824,-1.79205 c 1.063152,-2.52052 -0.216884,-3.62323 -1.713377,-3.62323 -2.580059,0 -5.513936,4.31258 -5.513936,8.09357 0,1.69382 0.807146,2.61876 2.06762,2.61876 1.476932,0 3.012975,-1.43738 4.273449,-3.80013 m -1.871149,-5.45483 c 0.728897,0 1.359134,0.55114 1.024028,1.9494 l -3.386779,0.78758 c 0.590688,-1.57559 1.575167,-2.73698 2.362751,-2.73698 m 12.091449,0.94493 c 0.374229,-1.27961 0.177333,-2.4023 -0.807571,-2.4023 -1.161814,0 -1.456945,0.88625 -2.638745,3.42633 l 0,-1.45694 c 0,-1.04402 -0.334681,-1.96939 -1.280036,-1.96939 -1.102702,0 -2.106744,1.71295 -2.875191,3.40677 l 0.512015,0 c 0.532001,-0.76802 1.024028,-1.22092 1.41782,-1.22092 0.472891,0 0.728898,0.72847 0,2.34318 l -2.126731,4.72636 c -0.393791,0.88624 0.01999,1.45694 0.886245,1.45694 0.531576,0 0.768021,-0.13778 0.984479,-0.70891 l 2.087607,-5.53307 c 0.590687,-0.7289 1.122689,-1.35914 1.79205,-2.06805 l 2.048058,0 z m 1.417395,-0.88624 1.437808,0 -2.875191,7.85755 c -0.256007,0.66936 0.09824,1.33872 0.788009,1.33872 1.634278,0 4.273024,-1.61472 5.198392,-3.82012 l -0.511589,0 c -0.728898,0.76845 -2.127156,1.79205 -3.328519,2.00893 l 2.638745,-7.38508 2.698282,0 0.33468,-1.12227 -2.619183,0 1.004467,-2.83564 -1.044016,0 -1.870724,2.83564 -1.851161,0.31512 0,0.80715 z m 11.283878,-2.52052 3.840108,-3.5841 0,-0.41336 -2.06762,0 -2.363601,3.99746 0.591113,0 z m 1.082715,7.91666 -0.669361,0 c -0.846695,1.00404 -1.752501,1.79205 -2.658308,1.79205 -0.925368,0 -1.398258,-0.55157 -1.398258,-1.79205 0,-0.51202 0.05911,-1.02403 0.157347,-1.49692 l 5.454824,-1.79205 c 1.063578,-2.52052 -0.216458,-3.62323 -1.712952,-3.62323 -2.579634,0 -5.513935,4.31258 -5.513935,8.09357 0,1.69382 0.807145,2.61876 2.067619,2.61876 1.476932,0 3.012975,-1.43738 4.273024,-3.80013 m -1.870299,-5.45483 c 0.728473,0 1.358709,0.55114 1.023604,1.9494 l -3.38678,0.78758 c 0.590688,-1.57559 1.575167,-2.73698 2.363176,-2.73698" /></g><g
       transform="translate(2.1000339,0.19999)"
       id="g4455"><path
         inkscape:connector-curvature="0"
         id="path66"
         style="fill:#283a7f;fill-opacity:1;fill-rule:nonzero;stroke:none"
         d="m 30.966603,29.052256 c -0.06719,-0.06762 0.202424,0 0.269616,-0.134808 -0.201999,0 -0.336807,0 -0.538806,0 -0.06762,0 -0.06762,-0.06762 -0.06762,-0.135233 -0.337232,0.06762 -0.74123,0.202424 -1.078462,0.270041 -0.471614,0.134382 -0.876038,0.471614 -1.415269,0.606422 -0.74123,0.269616 -1.347652,0.876038 -2.156499,1.145653 -0.06719,0 -0.06719,-0.06719 -0.06719,-0.134807 0.06719,-0.202425 0.336807,-0.269616 0.471614,-0.47204 0,-0.06719 0,-0.134383 -0.06762,-0.134383 0.539231,-0.741655 1.280886,-1.145653 1.9545,-1.752501 0,-0.06719 0,-0.134807 0,-0.201999 0.202424,-0.269615 0.539231,-0.404423 0.674039,-0.741655 0.06762,-0.201999 0.336807,-0.471615 0.674039,-0.606422 -0.06762,-0.06719 -0.202425,-0.06719 -0.202425,-0.201999 -0.26919,0 -0.538805,0.134807 -0.808846,-0.06762 0.125877,-0.125452 0.270466,-0.194769 0.423135,-0.239422 -0.05869,-0.01191 -0.110568,-0.0404 -0.153094,-0.09738 -0.06762,-0.134807 0.130129,-0.28535 0.336806,-0.336806 0.269616,-0.06762 0.606423,-0.06762 0.808847,-0.270041 -0.47204,-0.06719 -1.010846,0.135233 -1.482885,-0.134383 0.337232,-0.876463 0.876037,-1.617693 1.684884,-2.021691 0.06719,0 0.202424,0 0.202424,0.06719 0,0.336807 -0.202424,0.606423 -0.539231,0.674039 0.539231,0.134808 1.078037,0.134808 1.617268,0.403998 -0.06719,0.134808 -0.202424,0.06762 -0.269615,0.06762 0.337232,0.201999 0.741655,0.06719 1.078462,0.337232 -0.202424,0.201999 -0.404424,0 -0.606423,0 2.089308,0.605997 4.312999,1.078037 6.065074,2.425689 -1.48246,0.741655 -3.032537,1.078462 -4.649805,1.415269 -0.202424,0 -0.337232,0 -0.539231,-0.06719 0,0.06719 0,0.202424 -0.06762,0.202424 -0.26919,0 -0.471615,0 -0.673614,0.134808 -0.269615,0.134382 -0.674039,0.201999 -0.876463,0 z m -1.379972,4.688078 c -0.0055,0.0038 -0.01106,0.0077 -0.01658,0.01148 -0.252605,0.177759 -0.503935,0.358921 -0.769723,0.51329 -0.288327,0.167128 -0.589837,0.294281 -0.889221,0.436318 -0.0021,-0.0055 -0.0047,-0.01106 -0.0085,-0.01616 -0.02254,-0.03147 -0.06974,-0.05103 -0.113545,-0.02722 -0.255156,0.137784 -0.472465,0.320221 -0.678717,0.516692 -0.03147,0.02977 -0.06251,0.05996 -0.09356,0.09058 -0.0017,0.0017 -0.0038,0.0034 -0.0055,0.0051 -0.0017,0.0017 -0.0034,0.0034 -0.0051,0.0051 -0.03232,0.03189 -0.06421,0.06336 -0.09568,0.09568 -0.0043,0.0034 -0.0077,0.0072 -0.01148,0.01106 -0.0021,0.0021 -0.0021,0.0043 -0.0043,0.0064 -0.04763,0.04763 -0.09441,0.09568 -0.146715,0.157347 -0.0336,0.03997 -0.04508,0.06464 -0.08973,0.09441 -0.0421,0.02764 -0.157772,0.02722 -0.14714,-0.05061 4.25e-4,-0.0043 4.25e-4,-0.0085 8.5e-4,-0.01318 -0.03997,0.02126 -0.07952,0.0421 -0.119498,0.06124 -0.037,0.01786 -0.07102,0.03785 -0.105465,0.05784 -0.01446,-0.0055 -0.03019,-0.0077 -0.04635,-0.0068 -0.01701,0.0013 -0.03445,0.0051 -0.04848,0.01659 -0.0825,0.06464 -0.164151,0.133106 -0.243675,0.204975 -0.140761,0.127579 -0.273443,0.266639 -0.390815,0.415906 -0.0026,0.0017 -0.0043,0.0038 -0.0064,0.006 -0.0043,0.0064 -0.0089,0.01276 -0.01318,0.01871 -0.0064,0.0089 -0.01361,0.01744 -0.01999,0.02637 -0.0072,0.0094 -0.01446,0.01829 -0.02126,0.02764 -0.0021,0.003 -0.0047,0.0055 -0.0068,0.0085 -0.01616,0.02169 -0.03019,0.04465 -0.04593,0.06677 -8.5e-4,0.0013 -0.0017,0.003 -0.0026,0.0043 -0.01148,0.01233 -0.03062,0.02126 -0.05528,0.02637 -0.0089,-0.01361 -0.01829,-0.02637 -0.02679,-0.0404 -0.0068,-0.01021 -0.01276,-0.02126 -0.01914,-0.03232 -0.01999,-0.03487 -0.03912,-0.07102 -0.05741,-0.108017 -4.26e-4,-0.0013 -0.0013,-0.0026 -0.0017,-0.0038 -0.0055,-0.01106 -0.01106,-0.02254 -0.01616,-0.0336 0.07314,-0.07867 0.143738,-0.159473 0.21178,-0.242399 0.0043,-0.0055 0.0089,-0.01106 0.01318,-0.01658 0.02381,-0.02849 0.0472,-0.05741 0.07017,-0.08675 0.03827,-0.04763 0.0757,-0.09568 0.113119,-0.143738 0.01361,-0.01786 0.02764,-0.03572 0.04125,-0.05358 0.074,-0.09653 0.144588,-0.190517 0.210504,-0.2845 0.0017,-0.0026 0.0034,-0.0051 0.0051,-0.0072 0.0098,-0.01446 0.01956,-0.02849 0.02892,-0.04253 0.03232,-0.04763 0.06336,-0.09611 0.09228,-0.145014 0.02637,-0.0438 0.05103,-0.08845 0.074,-0.134383 0.0017,-0.0034 0.0034,-0.0064 0.0051,-0.0098 0.0026,-0.0047 0.0051,-0.0094 0.0072,-0.01403 0.0043,-0.0081 0.0072,-0.01701 0.01106,-0.02509 0.02381,-0.05103 0.04508,-0.103338 0.06422,-0.157347 0.0021,-0.0055 0.0038,-0.01148 0.006,-0.01743 0.0051,-0.01446 0.01021,-0.02892 0.01488,-0.04423 0.0077,-0.02424 0.01446,-0.04891 0.02126,-0.074 l 0,-4.25e-4 c 0.0013,-0.0055 0.0026,-0.01106 0.0038,-0.01616 0.0081,-0.03274 0.01701,-0.06507 0.02339,-0.09909 0.0034,-0.01786 -0.0013,-0.03232 -0.0081,-0.0455 0.0723,-0.126302 0.1633,-0.247927 0.267064,-0.363598 -0.0098,0.006 -0.02126,0.01148 -0.03104,0.01744 -0.09611,0.06209 -0.160323,0.148841 -0.250053,0.216032 -0.07357,0.05486 -0.208804,-0.03572 -0.121625,-0.100787 0.05911,-0.04423 0.104189,-0.09271 0.153094,-0.13906 0.003,-0.0038 0.0038,-0.0072 0.0072,-0.01063 0.110993,-0.109717 0.217309,-0.250053 0.343611,-0.342335 0.0774,-0.05656 0.145014,-0.103763 0.207528,-0.158197 0.01021,-0.0085 0.01999,-0.01786 0.02934,-0.02679 0.04678,-0.06209 0.09781,-0.117798 0.150967,-0.170105 0.0026,-0.0021 0.0043,-0.0047 0.0072,-0.0068 0.644696,-0.622157 1.730812,-0.59494 2.581335,-0.991709 0.336806,-0.134808 0.74123,0.06762 1.078462,0 0.201999,0 0.403998,0 0.605997,0.134808 -0.605147,0.330428 -1.16479,0.702531 -1.716779,1.049119 z m 1.207741,0.556667 c -0.03062,0.07399 -0.09908,0.137784 -0.166277,0.196896 0.0842,0.01701 0.143313,0.05401 0.08888,0.104189 -0.156071,0.143313 -0.305338,0.287051 -0.510739,0.356369 -0.01403,0.0047 -0.05528,0.01106 -0.103338,0.01403 -0.0825,0.07995 -0.165852,0.159473 -0.251755,0.235595 -0.07995,0.07059 -0.450351,0.01956 -0.337232,-0.0808 0.17138,-0.151393 0.329578,-0.316394 0.498406,-0.470339 0.09526,-0.08718 0.196046,-0.170529 0.280247,-0.268339 0.04678,-0.05443 0.08548,-0.107591 0.144589,-0.149267 0.05528,-0.03912 0.411653,-0.07059 0.357219,0.06166 z m -3.129921,-10.0974 c -0.06719,0.134808 -0.142038,0.149267 -0.201999,0.269616 -0.06762,0.134808 -0.134808,0.201999 -0.269616,0.269615 -0.06762,0 -0.135233,0 -0.135233,-0.06762 0.06762,-0.26919 0.270041,-0.538806 0.539656,-0.606422 0.06719,0 0.06719,0.06762 0.06719,0.134807 z m -5.593885,4.447806 c 0,0 -0.06719,-0.06719 -0.06719,-0.134382 0.876038,-1.146079 1.550077,-2.224116 2.156499,-3.436961 0.876463,-0.472039 1.603234,-1.158836 2.291732,-1.887308 1.145653,-1.21327 2.358498,-2.291307 3.773767,-2.965346 0.539231,-0.201999 1.21327,-0.134808 1.752501,0.06762 -0.202424,0.26919 -0.539231,0.201999 -0.808847,0.403998 -0.06762,0 -0.134807,0 -0.202424,-0.06719 0.06762,-0.06762 0.06762,-0.134807 0.06762,-0.202424 -0.674039,0.741655 -1.617694,1.078462 -2.156499,1.9545 -0.404424,0.674039 -0.674039,1.550077 -1.550077,1.752501 -0.270041,0.06719 0.06719,-0.202424 -0.06762,-0.134808 -2.089307,1.280461 -3.571768,2.830538 -5.189461,4.649805 z m 10.311306,1.482886 c -0.134382,0 -0.403998,0.06719 -0.336807,-0.06719 0.06719,-0.337232 0.539231,-0.337232 0.808422,-0.472039 0.135233,-0.06719 0.337232,-0.201999 0.472039,-0.134808 0.134808,0.202424 0.336807,0.134808 0.47204,0.269615 -0.404848,0.404424 -0.944079,0.202425 -1.415694,0.404424 z m 10.364038,4.827989 c 0.382735,-0.38316 0.769298,-0.793963 1.153308,-1.206466 l -0.0085,0 c 0.716565,-0.810122 1.417821,-1.582822 2.24793,-2.294283 0.253031,-0.225814 0.498406,-0.424836 0.733151,-0.58601 0.06719,-0.06719 0.06719,-0.201999 0.134807,-0.269616 -0.336807,0.135233 -0.539231,0.404423 -0.876038,0.539231 -0.06762,0 -0.134807,-0.06719 -0.06762,-0.134808 0.240272,-0.179885 0.48012,-0.35977 0.719967,-0.540081 -0.01446,8.5e-4 -0.03062,8.5e-4 -0.04593,8.5e-4 -0.06719,0 -0.06719,-0.06719 -0.06719,-0.134807 -0.876463,-0.134808 -1.550076,0.472039 -2.156924,1.011271 -0.134808,0.06719 -0.269615,-0.06762 -0.336807,-0.06762 -1.010845,0.337232 -1.752501,1.21327 -2.763346,1.617693 0,-0.06762 0,-0.06762 0,-0.135233 -0.404424,0.135233 -0.79694,0.379758 -1.212845,0.47204 -0.606847,0.134808 -1.146079,0.06762 -1.68531,0.06762 -0.816501,0.08122 -1.633428,0.261535 -2.450354,0.435892 -0.02339,0.0064 -0.0472,0.01148 -0.07059,0.01786 -0.438019,0.119924 -0.851373,0.283224 -1.255796,0.505636 -0.01573,0.0085 -0.03062,0.01743 -0.0455,0.02679 -0.03402,0.0421 -0.06677,0.0825 -0.09781,0.116522 -0.145014,0.159472 -0.270041,0.305337 -0.462259,0.403572 -0.414205,0.210505 -0.752287,0.577505 -1.117586,0.875613 -0.02637,0.02126 -0.06634,0.03189 -0.108017,0.03402 -0.361472,0.347013 -0.718266,0.698704 -1.085266,1.039338 -0.02594,0.02381 -0.130555,0.037 -0.205826,0.02466 0.0017,-0.0026 0.0043,-0.0038 0.0055,-0.0064 0.01318,-0.02126 0.02594,-0.04295 0.03912,-0.06421 0.05656,-0.09526 0.114395,-0.190092 0.172656,-0.284075 0.06507,-0.105464 0.131831,-0.210079 0.199873,-0.313417 0.09186,-0.13906 0.186264,-0.276845 0.286626,-0.410377 0.02637,-0.03445 0.01914,-0.06549 -0.0021,-0.08845 -0.02169,-0.02211 -0.05698,-0.0353 -0.09313,-0.03487 0.335956,-0.326175 0.735702,-0.604296 1.131195,-0.844143 0,-0.0043 -4.26e-4,-0.0077 -4.26e-4,-0.01148 -0.04465,0.01531 -0.110142,-0.02041 -0.07612,-0.06804 0.04253,-0.05954 0.07612,-0.1229 0.116096,-0.183713 0.0077,-0.01999 0.01446,-0.03997 0.02169,-0.05996 -0.01701,-0.01786 -0.03402,-0.0353 -0.05103,-0.05316 -0.108442,0.07102 -0.224538,0.13821 -0.31682,0.221136 -0.161173,0.145439 -0.287476,0.442696 -0.532001,0.43972 -0.01616,0 -0.06379,-0.0026 -0.102063,-0.01446 -0.02934,-0.0051 -0.05486,-0.01318 -0.07102,-0.02382 0.003,-0.0055 0.006,-0.01063 0.0089,-0.01573 0.003,-0.0064 0.0068,-0.01233 0.01021,-0.01871 0.003,-0.006 0.0064,-0.01148 0.0098,-0.01744 0.01021,-0.01914 0.02084,-0.0387 0.0319,-0.05783 0.01063,-0.01956 0.02126,-0.0387 0.03189,-0.05826 0.0089,-0.01531 0.01701,-0.03104 0.02594,-0.04678 0.01616,-0.02849 0.03147,-0.05698 0.04763,-0.08548 0.01191,-0.02041 0.02381,-0.0404 0.03572,-0.06081 0.02849,-0.04975 0.05741,-0.09908 0.08675,-0.148841 0.01403,-0.02381 0.02764,-0.04763 0.04167,-0.07144 0.02424,-0.04082 0.0472,-0.08208 0.07144,-0.122475 0.0336,-0.05613 -0.0013,-0.102063 -0.05061,-0.120349 0.125027,-0.162024 0.277696,-0.297683 0.461409,-0.402297 l -0.01999,0 c 0.257708,-0.129704 0.515842,-0.287902 0.773975,-0.432916 0.037,-0.03189 0.074,-0.06464 0.111419,-0.09611 -0.384861,0.128854 -0.730173,0.304062 -1.072083,0.529025 0,0 -0.08888,0.03615 -0.11397,0.06124 0,0 -0.0774,0.02934 -0.167978,-0.06124 -0.0094,-0.01233 -0.01616,-0.02764 -0.01616,-0.04975 0.06762,-0.134808 0.269615,-0.201999 0.404423,-0.336807 0.06762,0 0.134808,0 0.134808,0.06719 2.156499,-1.684884 5.121844,-1.280036 7.615575,-2.156499 0.201999,-0.134808 0.404424,-0.269616 0.606423,-0.404423 0.336807,-0.134383 0.606422,-0.471615 1.010845,-0.674039 0.539231,-0.403998 0.943655,-0.876038 1.145654,-1.550077 0,-0.06719 -0.06719,-0.134382 -0.06719,-0.134382 -0.876038,0.943229 -1.887309,1.684459 -2.965346,2.224115 -1.415269,0.74123 -2.965346,0.606423 -4.448231,0.808422 0.06762,-0.134808 0.202424,-0.134808 0.337232,-0.134808 0,-0.202425 0.134808,-0.269616 0.269615,-0.404424 0.06719,0 0.134383,0 0.201999,0 0.06762,0 0.06762,-0.134807 0.134808,-0.134807 0.134808,0 0.337232,-0.06719 0.269616,-0.06719 -0.201999,-0.269615 -0.606423,0.201999 -0.943229,0 0.134382,-0.134807 0.06719,-0.337232 0.201999,-0.404423 0.06719,0 0.201999,0 0.26919,0 0,-0.134808 0.135233,-0.269615 0.135233,-0.269615 1.010846,-0.606423 1.9545,-1.078037 2.897729,-1.617268 -0.201999,0 -0.336807,0.201999 -0.539231,0.06719 0.135233,0 0,-0.201999 0.135233,-0.201999 0.74123,-0.202424 1.347652,-0.606848 2.088883,-0.876038 -0.269616,0 -0.471615,0.201999 -0.741231,0 0.134808,-0.06762 0.201999,-0.202424 0.404424,-0.202424 0,-0.06762 0,-0.134808 0,-0.201999 0,-0.06762 0.06719,-0.06762 0.134808,-0.06762 -0.06762,0 -0.134808,-0.06719 -0.134808,-0.06719 0.06719,-0.134808 0.269615,-0.06762 0.403998,-0.202424 -0.06719,0 -0.201999,0 -0.201999,-0.06719 0.201999,-0.269615 0.539231,-0.337232 0.876038,-0.404423 -0.06719,-0.134808 -0.269616,0 -0.269616,-0.134808 0,-0.06762 0.06762,-0.06762 0.134808,-0.06762 -0.06719,0 -0.06719,0 -0.134808,0 -0.134382,-0.06719 -0.06719,-0.201999 -0.06719,-0.26919 0.404423,-0.47204 0.404423,-1.078463 0.606422,-1.617694 -0.06762,0 -0.134808,0 -0.134808,-0.06719 -0.674038,0.74123 -1.752075,1.010846 -2.762921,1.280461 -0.06762,0 -0.269615,0 -0.337232,0 -0.336807,0.134383 -0.808847,0.134383 -1.145653,-0.06762 -0.269191,-0.134808 -0.404424,-0.336807 -0.674039,-0.539231 -0.538806,-0.336807 -1.078037,-0.606423 -1.684885,-0.808422 -1.684459,-0.539231 -3.43696,-0.808846 -5.189036,-0.741655 0.74123,-0.403998 1.559008,-0.438444 2.358924,-0.673614 1.145653,-0.337232 2.22369,-0.74123 3.43696,-0.674038 -0.201999,-0.06719 -0.471615,0 -0.674039,0 -0.943229,-0.06719 -1.886883,0.201999 -2.898154,0.404423 -0.673614,0.134808 -1.280036,0.404423 -1.954075,0.539231 -0.404423,0.134382 -0.606848,0.539231 -1.078462,0.471614 0,0 0,-0.134807 0,-0.202424 0.674039,-0.808421 1.48246,-1.617268 2.560922,-1.684884 1.21327,-0.201999 2.358923,0 3.572193,0.134807 0.875613,0.06762 1.68446,0.270041 2.560497,0.47204 0.337232,0 0.404849,0.539231 0.674464,0.606423 0.403999,0.134807 0.808422,0 1.212845,0.269615 0,-0.134808 -0.06719,-0.269615 0,-0.404423 0.269616,-0.269616 0.606422,0.06762 0.876038,-0.06719 0.539231,-0.337232 -0.471615,-0.943655 -0.74123,-1.415269 0,-0.06719 0.06719,-0.134808 0.06719,-0.134808 0.539231,0.471614 0.943655,1.010846 1.617693,1.347652 0.336807,0.134808 1.145654,0.337232 1.010846,-0.06719 -0.336807,-0.741655 -1.010846,-1.348078 -1.550077,-2.021691 0,-0.06762 0,-0.202425 0,-0.270041 -0.134807,0 -0.134807,-0.06719 -0.201999,-0.134383 0,-0.06762 0,-0.202424 0,-0.269615 -0.269615,-0.134808 -0.202424,-0.404423 -0.337232,-0.606848 -0.201999,-0.336806 -0.06719,-0.808421 -0.201999,-1.212844 -0.134808,-0.404424 -0.202424,-0.74123 -0.269615,-1.145654 -0.201999,-1.145653 -0.471615,-2.156499 -0.606848,-3.234961 -0.134382,-1.280461 0.741655,-2.291307 1.348078,-3.4373854 0.47204,-0.8084213 1.010845,-1.6172679 1.886883,-2.156499 0.202425,-0.8088466 0.741656,-1.4824602 1.280887,-2.1564991 0.537955,-0.6578789 1.432279,-1.0584748 2.080377,-1.3476524 0.941103,-0.4205832 1.790774,-0.6838198 1.7912,-0.6838198 l -46.2520779,0 0,35.6640967 32.7542899,0 c 1.283013,-0.923667 2.56475,-1.362536 4.355525,-2.244953 0.845419,-0.416756 2.780357,-1.305552 3.436109,-1.960879" /><path
         inkscape:connector-curvature="0"
         id="path68"
         style="fill:#ed1c24;fill-opacity:1;fill-rule:nonzero;stroke:none"
         d="m 100.27608,3.5000173 -38.364502,0 c 4.25e-4,0 0.07229,0.011907 0.364448,0.1684034 0.311291,0.1671276 0.714439,0.382735 0.967895,0.5154164 0.494153,0.2585588 0.975123,0.5826077 1.285139,1.0780369 0.134807,0.2024243 0.336806,0.6064223 0.201999,0.8760379 -0.134808,0.337232 -0.201999,0.8764631 -0.539231,1.0112709 -0.403998,0.201999 -0.943655,0.201999 -1.415269,0.1348077 -0.269616,0 -0.539231,-0.067616 -0.808422,-0.1348077 1.010846,0.4044233 1.954075,0.8760378 2.628114,1.8196922 0.06762,0.1343825 0.336807,0.201999 0.606422,0.201999 0.06762,0 0.06762,0.1348078 0.06762,0.2019991 -0.134808,0.135233 -0.269616,0.2024242 -0.202425,0.4044233 0.06762,0 0.134808,0 0.202425,0 0.336807,-0.1348078 0.269615,-0.8084214 0.74123,-0.6064224 0.337232,0.2019991 0.471614,0.6736136 0.269615,1.010846 -0.269615,0.269615 -0.539231,0.471614 -0.808846,0.674039 -0.06719,0.134807 -0.06719,0.336806 0,0.471614 0.202424,0.269616 0.269615,0.539231 0.336807,0.808847 0.202424,0.471614 0.27004,1.010845 0.472039,1.48246 0.269616,1.011271 0.539231,2.022116 0.471615,3.032962 0,0.539231 -0.269616,1.010846 -0.06719,1.550077 0.134807,0.539231 0.471614,0.943654 0.74123,1.415269 0.269615,0.404423 0.539231,0.674039 0.74123,1.078037 0.404423,0.674038 1.145653,1.348077 0.808846,2.156924 -0.201999,0.471614 -0.943654,0.403998 -1.415268,0.674039 -0.404424,0.336807 -0.06762,0.876038 0.134807,1.212844 0.336807,0.606423 -0.404423,1.010846 -0.876038,1.21327 0.134383,0.201999 0.404424,0.134383 0.471615,0.269191 0.06719,0.337232 0.404423,0.539231 0.201999,0.876463 -0.26919,0.404423 -1.078037,0.606422 -0.673614,1.212844 0.269616,0.471615 0.09483,0.995962 -0.06762,1.482886 -0.201999,0.606422 -0.74123,0.876038 -1.212845,1.010845 -0.404423,0.134808 -0.876038,0.134808 -1.280886,0.06719 -0.134383,-0.06719 -0.26919,-0.134383 -0.403998,-0.134383 -1.146079,-0.135233 -2.291307,-0.47204 -3.437386,-0.47204 -0.336806,0.06719 -0.673613,0.134808 -0.943229,0.269616 -0.304487,0.223262 -0.575803,0.466086 -0.816076,0.721243 -0.0026,0.003 -0.0051,0.006 -0.0081,0.0089 -0.05018,0.05358 -0.09909,0.108442 -0.146715,0.1633 -0.02934,0.03402 -0.05826,0.06847 -0.08675,0.103339 -0.01914,0.02296 -0.0387,0.04635 -0.05741,0.06974 -0.196896,0.246226 -0.37338,0.50606 -0.530726,0.776527 -0.0098,0.01701 -0.01999,0.03445 -0.02977,0.05146 -0.01743,0.03104 -0.03487,0.06294 -0.05188,0.09441 -0.221561,0.409527 -0.388689,0.827558 -0.510314,1.236234 -0.458006,1.543698 -0.257708,2.867536 0.06379,3.189033 0.0893,0.08931 2.224541,0.748885 3.711679,1.410166 0.697429,0.31044 1.185628,0.549437 1.590477,0.805019 l 37.673449,0 0,-35.6640967" /><path
         inkscape:connector-curvature="0"
         id="path70"
         style="fill:#918f90;fill-opacity:1;fill-rule:nonzero;stroke:none"
         d="m 64.193529,16.510455 c 0.269615,0.06762 0.674038,0.06762 0.674038,0.202425 -0.134807,0.538805 -0.944079,0.673613 -1.348077,1.21327 l -0.202424,0 c -0.202,0.134382 -0.134383,0.471614 -0.336807,0.471614 -0.202425,-0.06762 -0.404849,0 -0.606423,0.06719 0.269616,0.269616 0.606423,0.47204 1.010846,0.404424 0.06762,0 0.201999,0.135233 0.201999,0.27004 0,0 0.06762,0 0.134808,-0.06804 0.06762,0 0.135233,0 0.135233,0.06804 l 0,0.269191 c -0.202424,0.269615 -0.539656,0.134808 -0.809272,0.202424 0.539231,0.134808 1.078462,0.134808 1.550077,0 0.404848,-0.134808 0,-0.808847 0.27004,-1.146079 -0.134807,0 0,-0.201999 -0.134807,-0.201999 0.134807,-0.134807 0.269615,-0.336806 0.403998,-0.404423 0.135233,0 0.337232,-0.06719 0.404423,-0.202424 0,-0.134383 -0.26919,-0.201999 -0.201999,-0.336807 0.404423,-0.269616 0.74123,-0.674039 0.606848,-1.078462 -0.06762,-0.201999 -0.606848,-0.201999 -0.943655,-0.336807 -0.337232,-0.134808 -0.741655,0 -1.145653,0.06719 -0.337232,0 -0.674039,0.202425 -1.011271,0.269616 -0.471615,0.134808 -0.876038,0.404423 -1.280461,0.674039 0.47204,-0.201999 0.943654,-0.269616 1.48246,-0.404424 0.404849,0 0.748034,-0.09951 1.146079,0" /></g></g></svg>