<?xml version="1.0" encoding="UTF-8" standalone="no"?>
<!-- Created with Inkscape (http://www.inkscape.org/) -->

<svg
   xmlns:dc="http://purl.org/dc/elements/1.1/"
   xmlns:cc="http://creativecommons.org/ns#"
   xmlns:rdf="http://www.w3.org/1999/02/22-rdf-syntax-ns#"
   xmlns:svg="http://www.w3.org/2000/svg"
   xmlns="http://www.w3.org/2000/svg"
   xmlns:sodipodi="http://sodipodi.sourceforge.net/DTD/sodipodi-0.dtd"
   xmlns:inkscape="http://www.inkscape.org/namespaces/inkscape"
   id="svg2"
   version="1.1"
   inkscape:version="0.91 r13725"
   xml:space="preserve"
   width="170"
   height="160"
   viewBox="0 0 170 160"
   sodipodi:docname="logo_airGRteaching.svg"
   inkscape:export-filename="\\anasdata.cemagref.fr\Projets\hban\Equipes\Hydro\ADMINISTRATIF\EQUIPE\PRATIQUE\Logo\airGR\path14.png"
   inkscape:export-xdpi="90"
   inkscape:export-ydpi="90"><metadata
     id="metadata8"><rdf:RDF><cc:Work
         rdf:about=""><dc:format>image/svg+xml</dc:format><dc:type
           rdf:resource="http://purl.org/dc/dcmitype/StillImage" /><dc:title></dc:title></cc:Work></rdf:RDF></metadata><defs
     id="defs6" /><sodipodi:namedview
     pagecolor="#ffffff"
     bordercolor="#666666"
     borderopacity="1"
     objecttolerance="10"
     gridtolerance="10"
     guidetolerance="10"
     inkscape:pageopacity="0"
     inkscape:pageshadow="2"
     inkscape:window-width="1920"
     inkscape:window-height="1132"
     id="namedview4"
     showgrid="false"
     inkscape:zoom="0.67428572"
     inkscape:cx="-196.89773"
     inkscape:cy="175"
     inkscape:window-x="-8"
     inkscape:window-y="-8"
     inkscape:window-maximized="1"
     inkscape:current-layer="g12" /><g
     id="g10"
     inkscape:groupmode="layer"
     inkscape:label="logo_airGR"
     transform="matrix(1.25,0,0,-1.25,0,160)"><g
       id="g12"><path
         d="m 107.03019,66.592176 c 0,0 3.31752,-1.001014 5.2459,-1.976678 0.66769,-0.337096 1.82525,-1.013003 2.66011,-1.900282 0.81774,-0.868436 1.21513,-1.747492 1.21513,-1.747492 l 13.07553,-22.04423 -21.13263,-0.0092 -9.881329,18.556783 c 0,0 -2.023265,3.476484 -3.267852,4.48435 -1.039725,0.841715 -1.482679,1.1401 -2.509386,1.1401 l -5.020828,0 0.0041,-24.167873 -18.698611,-0.0083 0,61.736386 37.549666,0 c 0,0 17.10357,-0.30901 17.10357,-16.580109 0,-16.27247 -16.34338,-17.483484 -16.34338,-17.483484 z m -8.133504,20.672546 -11.319811,0.0065 -0.0055,-10.496942 11.325296,0.0041 c 0,0 5.245569,0.01611 5.245569,5.339425 0,5.430552 -5.245569,5.146897 -5.245569,5.146897 z"
         style="fill:#a4c400;fill-opacity:1;fill-rule:evenodd;stroke:none"
         id="path16"
         inkscape:connector-curvature="0" /><path
         d="m 78.365971,123.45059 c -30.271249,0 -54.812533,-16.43554 -54.812533,-36.710697 0,-20.273444 24.541284,-36.709324 54.812533,-36.709324 7.882042,0 15.374573,1.116119 22.147349,3.121916 l -2.300419,4.318543 c 0,0 -0.553942,0.947229 -1.256576,1.995175 -3.229142,-0.37478 -6.641565,-0.5608 -10.199925,-0.5608 -23.010302,0 -41.661979,11.236912 -41.661979,25.096604 0,13.859689 18.651677,25.096603 41.661979,25.096603 5.346277,0 10.367104,-0.41623 14.92511,-1.27131 l 1.11988,1.94311 4.67174,8.07868 c -8.434614,3.5474 -18.412206,5.6015 -29.107159,5.6015 z M 96.956325,59.466203 c 0.476188,0.05481 0.947229,0.116477 1.415877,0.179169 -0.468648,-0.06269 -0.939689,-0.124356 -1.415877,-0.179169 z m 1.415877,0.179169 c 0.21411,0.02946 0.425488,0.05893 0.636855,0.08975 -0.211367,-0.03084 -0.422745,-0.06029 -0.636855,-0.08975 z m 0.636855,0.08975 c 0.449461,0.06578 0.895154,0.133948 1.335363,0.207601 -0.440209,-0.07366 -0.886929,-0.141827 -1.335363,-0.207601 z m 1.504263,-6.582644 c 0.36382,0.107228 0.72523,0.218223 1.08391,0.330589 -0.35868,-0.112366 -0.72009,-0.223361 -1.08391,-0.330589 z m 32.32397,29.49531 -6.12907,-0.0078 c -0.46144,-8.729238 -5.37402,-14.876807 -13.23208,-18.725674 0.4981,-0.330246 1.02259,-0.734488 1.46006,-1.199024 0.81774,-0.868437 1.2165,-1.747492 1.2165,-1.747492 l 0.34909,-0.590262 c 8.90601,5.781009 14.89428,13.565416 16.3355,22.270332 z M 113.47614,63.914237 c -0.27407,-0.133606 -0.55121,-0.264813 -0.83213,-0.39328 0.28092,0.128467 0.55806,0.259674 0.83213,0.39328 z m -0.83213,-0.39328 c -0.0535,-0.02398 -0.10859,-0.04831 -0.16203,-0.07228 0.0535,0.02398 0.10859,0.04831 0.16203,0.07228 z m -0.16203,-0.07228 c -0.22337,-0.10175 -0.4481,-0.200751 -0.67694,-0.298386 0.22748,0.09763 0.45357,0.19664 0.67694,0.298386 z m -0.67694,-0.298386 c -0.0751,-0.0322 -0.15142,-0.06304 -0.22782,-0.0949 0.0764,0.03186 0.1528,0.06269 0.22782,0.0949 z m -0.22782,-0.0949 c -0.22335,-0.09387 -0.44946,-0.187391 -0.67693,-0.277147 0.22747,0.08975 0.45358,0.18328 0.67693,0.277147 z m -0.67693,-0.277147 c -0.0575,-0.02398 -0.1151,-0.04693 -0.17403,-0.06955 0.0589,0.02261 0.11648,0.04556 0.17403,0.06955 z m -0.17403,-0.06955 c -0.29153,-0.115106 -0.58478,-0.227472 -0.88317,-0.33607 0.29839,0.108598 0.59164,0.220964 0.88317,0.33607 z m -0.88317,-0.33607 c -0.31859,-0.116134 -0.63958,-0.229869 -0.9647,-0.339837 0.32512,0.109968 0.64611,0.223703 0.9647,0.339837 z m -0.9647,-0.339837 c -0.29598,-0.100373 -0.59437,-0.19801 -0.89687,-0.292905 0.3025,0.0949 0.60089,0.19253 0.89687,0.292905 z m -0.89687,-0.292905 c -0.0682,-0.02158 -0.13634,-0.04282 -0.20451,-0.0644 0.0682,0.02158 0.13634,0.04282 0.20451,0.0644 z m -0.20451,-0.0644 c -0.26893,-0.08428 -0.53923,-0.165808 -0.81363,-0.245971 0.27304,0.08016 0.5447,0.161696 0.81363,0.245971 z m -0.81363,-0.245971 c -0.0415,-0.01234 -0.0829,-0.02432 -0.1247,-0.03631 0.0418,0.01199 0.0832,0.02398 0.1247,0.03631 z m -0.1247,-0.03631 c -0.99279,-0.286395 -2.01504,-0.54881 -3.06436,-0.784161 1.04932,0.235351 2.07157,0.497766 3.06436,0.784161 z m -3.06436,-0.784161 c -0.0239,-0.0055 -0.0493,-0.01062 -0.0737,-0.01747 0.0244,0.0069 0.0497,0.01199 0.0737,0.01747 z m -0.0737,-0.01747 c -0.33572,-0.07502 -0.67556,-0.146966 -1.01677,-0.216852 0.34121,0.06989 0.68105,0.141828 1.01677,0.216852 z m 12.78776,-0.22336 c -0.27954,-0.18191 -0.5632,-0.361421 -0.84822,-0.539219 0.28502,0.177798 0.56868,0.357309 0.84822,0.539219 z m -13.84632,-0.0028 c -0.21515,-0.04419 -0.43473,-0.08428 -0.65296,-0.127097 0.21823,0.04282 0.43781,0.0829 0.65296,0.127097 z m -0.65296,-0.127097 c -0.36793,-0.07092 -0.73997,-0.139087 -1.11475,-0.204861 0.37478,0.06578 0.74682,0.133947 1.11475,0.204861 z m -1.11475,-0.204861 c -0.14834,-0.02535 -0.29428,-0.05344 -0.44295,-0.07743 0.14867,0.02398 0.29461,0.05208 0.44295,0.07743 z m 14.7271,-0.227472 c -0.28639,-0.177798 -0.57553,-0.353199 -0.8674,-0.527228 0.29187,0.174029 0.58101,0.34943 0.8674,0.527228 z m -0.8674,-0.527228 c -0.30113,-0.179169 -0.60465,-0.355939 -0.91264,-0.529969 0.30799,0.17403 0.61151,0.3508 0.91264,0.529969 z m -0.91264,-0.529969 c -0.30489,-0.17403 -0.61424,-0.346347 -0.92598,-0.515238 0.31174,0.168891 0.62109,0.341208 0.92598,0.515238 z m -0.93112,-0.519007 c -0.30935,-0.16752 -0.61973,-0.333328 -0.93421,-0.496738 0.31448,0.16341 0.62486,0.329218 0.93421,0.496738 z m -0.96505,-0.51245 c -0.309,-0.160669 -0.61938,-0.318598 -0.93387,-0.473785 0.31449,0.155187 0.62487,0.313116 0.93387,0.473785 z m -0.95682,-0.485776 c -0.31723,-0.157929 -0.63822,-0.313116 -0.96196,-0.467277 0.32374,0.154161 0.64473,0.309348 0.96196,0.467277 z m -0.96196,-0.467277 c -0.32133,-0.152447 -0.64371,-0.302153 -0.97018,-0.449462 0.32647,0.147309 0.64885,0.297015 0.97018,0.449462 z m -0.97018,-0.449462 c -0.0349,-0.01611 -0.0699,-0.0322 -0.10451,-0.04693 0.0346,0.01473 0.0696,0.03084 0.10451,0.04693 z m -0.10451,-0.04693 c -0.30524,-0.137717 -0.6115,-0.274405 -0.92085,-0.406641 0.30935,0.132236 0.61561,0.268924 0.92085,0.406641 z m -0.97155,-0.428223 c -0.31448,-0.134976 -0.63034,-0.268924 -0.94895,-0.400132 0.31861,0.131208 0.63447,0.265156 0.94895,0.400132 z m -0.94895,-0.400132 c -0.0589,-0.02535 -0.11887,-0.04796 -0.17779,-0.07228 0.0589,0.02432 0.11888,0.04693 0.17779,0.07228 z m -0.17779,-0.07228 c -0.29325,-0.118874 -0.58615,-0.238091 -0.88179,-0.353198 0.29564,0.115107 0.58854,0.234324 0.88179,0.353198 z m -0.97018,-0.386771 c -0.32408,-0.127096 -0.64919,-0.251451 -0.9784,-0.37341 0.32921,0.121959 0.65432,0.247684 0.9784,0.37341 z m -1.0291,-0.391909 c -0.32923,-0.120588 -0.65982,-0.240833 -0.99177,-0.35868 0.33195,0.117847 0.66254,0.236722 0.99177,0.35868 z m -0.99177,-0.35868 c -0.0723,-0.02398 -0.14457,-0.04831 -0.21549,-0.07366 0.071,0.02535 0.14321,0.04967 0.21549,0.07366 z m -0.21549,-0.07366 c -0.29427,-0.103116 -0.58991,-0.204862 -0.88693,-0.303867 0.29702,0.09901 0.59266,0.20075 0.88693,0.303867 z m -0.99963,-0.339838 c -0.33162,-0.109625 -0.66358,-0.218223 -0.99931,-0.323737 0.33573,0.105509 0.66769,0.214112 0.99931,0.323737 z"
         style="fill:#009ee0;fill-opacity:1;fill-rule:evenodd;stroke:none"
         id="path18"
         inkscape:connector-curvature="0" /><path
         d="m 109.62624,82.631693 18.2423,0 0,-5.21233 -18.2423,0 0,5.21233 z"
         style="fill:#009ee0;fill-opacity:1;fill-rule:nonzero;stroke:none"
         id="path20"
         inkscape:connector-curvature="0" /><path
         d="m 113.47614,63.91424 c -4.59911,-2.252109 -10.20747,-3.714577 -16.519815,-4.448037 0.702634,-1.047946 1.256576,-1.995175 1.256576,-1.995175 l 2.300419,-4.318543 c 5.96429,1.766677 11.36914,4.226047 15.98847,7.224977 l -0.34909,0.590262 c 0,0 -0.39876,0.879056 -1.2165,1.747492 -0.43747,0.464537 -0.96196,0.868779 -1.46006,1.199024 z"
         style="fill:#a4c400;fill-opacity:1;fill-rule:evenodd;stroke:none"
         id="path22"
         inkscape:connector-curvature="0" /><text
         transform="scale(1,-1)"
         style="font-variant:normal;font-weight:bold;font-size:49.33127975px;font-family:Arial;-inkscape-font-specification:Arial-BoldMT;writing-mode:lr-tb;fill:#003a80;fill-opacity:1;fill-rule:nonzero;stroke:none"
         id="text24"
         x="4.7320433"
         y="-39.034653"><tspan
           x="4.7320433"
           y="-39.034653"
           id="tspan26">a</tspan></text>
<text
         transform="scale(1,-1)"
         style="font-variant:normal;font-weight:bold;font-size:49.33127975px;font-family:Arial;-inkscape-font-specification:Arial-BoldMT;writing-mode:lr-tb;fill:#003a80;fill-opacity:1;fill-rule:nonzero;stroke:none"
         id="text32"
         x="32.191845"
         y="-39.034653"><tspan
           x="32.191845"
           y="-39.034653"
           id="tspan34">i</tspan></text>
<g
         id="g36"
         transform="matrix(0.34257833,0,0,-0.34257833,0.97409977,129.92361)"><path
           d="m 101.469,180.512 0,-18.282 19.75,0 0,18.282 -19.75,0 z m 0,84.797 0,-74.672 19.75,0 0,74.672 -19.75,0 z"
           style="fill:none;stroke:#003a80;stroke-width:0.80000001;stroke-linecap:butt;stroke-linejoin:miter;stroke-miterlimit:4;stroke-dasharray:none;stroke-opacity:1"
           id="path38"
           inkscape:connector-curvature="0" /></g><text
         transform="scale(1,-1)"
         style="font-variant:normal;font-weight:bold;font-size:49.33127975px;font-family:Arial;-inkscape-font-specification:Arial-BoldMT;writing-mode:lr-tb;fill:#003a80;fill-opacity:1;fill-rule:nonzero;stroke:none"
         id="text40"
         x="45.873569"
         y="-39.034653"><tspan
           x="45.873569"
           y="-39.034653"
           id="tspan42">r</tspan></text>
<g
         id="g44"
         transform="matrix(0.34257833,0,0,-0.34257833,0.97409977,129.92361)"><path
           d="m 160.313,265.309 -19.75,0 0,-74.672 18.343,0 0,10.609 c 3.145,-5.008 5.969,-8.312 8.469,-9.906 2.508,-1.594 5.359,-2.391 8.547,-2.391 4.5,0 8.836,1.242 13.016,3.719 l -6.125,17.234 c -3.325,-2.156 -6.418,-3.234 -9.282,-3.234 -2.761,0 -5.105,0.762 -7.031,2.281 -1.918,1.524 -3.43,4.278 -4.531,8.266 -1.106,3.98 -1.656,12.324 -1.656,25.031 l 0,23.063 z"
           style="fill:none;stroke:#003a80;stroke-width:0.80000001;stroke-linecap:butt;stroke-linejoin:miter;stroke-miterlimit:4;stroke-dasharray:none;stroke-opacity:1"
           id="path46"
           inkscape:connector-curvature="0" /></g><text
         xml:space="preserve"
         style="font-style:normal;font-weight:normal;font-size:10.96250629px;line-height:300%;font-family:Sans;letter-spacing:0px;word-spacing:0px;fill:#000000;fill-opacity:1;stroke:none;stroke-width:1px;stroke-linecap:butt;stroke-linejoin:miter;stroke-opacity:1"
         x="5.7214231"
         y="-13.42375"
         id="text4148"
         sodipodi:linespacing="300%"
         transform="scale(1,-1)"><tspan
           sodipodi:role="line"
           id="tspan4150"
           x="5.7214231"
           y="-13.42375"
           style="font-style:italic;font-variant:normal;font-weight:normal;font-stretch:normal;font-size:49.33127975px;line-height:300%;font-family:'Brush Script MT';-inkscape-font-specification:'Brush Script MT, Italic';text-align:start;writing-mode:lr-tb;text-anchor:start;fill:#666666;fill-opacity:1">teaching</tspan></text>
<flowRoot
         xml:space="preserve"
         id="flowRoot4152"
         style="font-style:normal;font-weight:normal;font-size:40px;line-height:125%;font-family:Sans;letter-spacing:0px;word-spacing:0px;fill:#000000;fill-opacity:1;stroke:none;stroke-width:1px;stroke-linecap:butt;stroke-linejoin:miter;stroke-opacity:1"><flowRegion
           id="flowRegion4154"><rect
             id="rect4156"
             width="822.16144"
             height="180.37215"
             x="-201.34566"
             y="331.16327" /></flowRegion><flowPara
           id="flowPara4158" /></flowRoot></g></g></svg>